<?xml version="1.0" encoding="utf-8"?>
<!-- Generator: Adobe Illustrator 23.1.0, SVG Export Plug-In . SVG Version: 6.00 Build 0)  -->
<svg version="1.1" id="Capa_1" xmlns="http://www.w3.org/2000/svg" xmlns:xlink="http://www.w3.org/1999/xlink" x="0px" y="0px"
	 viewBox="0 0 16 16" style="enable-background:new 0 0 16 16;" xml:space="preserve">
<style type="text/css">
	.st0{fill:#589765;}
	.st1{fill:#0B0B0B;}
	.st2{fill:#FFFFFF;}
</style>
<path class="st0" d="M13,6.3c0-0.2,0.1-0.3,0.3-0.4c0.1-0.1,0.3-0.2,0.5-0.2c0.2,0,0.3,0,0.5,0C13.9,5.9,13.4,6.1,13,6.3z"/>
<g>
	<path class="st1" d="M6.6,7.8c0-0.2,0-0.4-0.1-0.6c0-0.2-0.1-0.3-0.2-0.5C6,6.4,5.9,5.9,6,5.3c0.1-0.6,0.5-1.2,0.9-1.6
		c0.2-0.2,0.5-0.4,0.8-0.6c0,0,0.1,0,0.1,0c0,0,0,0,0,0.1c-0.1,0.5,0,1,0,1.6c0,0.4,0.1,0.8-0.1,1.2C7.6,6.4,7.4,6.7,7,6.9
		C6.9,7.1,6.8,7.2,6.8,7.4c0,0.6,0.1,1.3,0.1,1.9c0,0,0,0.1,0,0.1C7,9.4,7,9.3,7,9.3C7.3,9,7.5,8.7,7.8,8.4C7.8,8.3,7.9,8.2,7.8,8
		c0-0.3-0.1-0.5-0.1-0.8c0-0.4,0.1-0.7,0.2-1c0.1-0.3,0.2-0.7,0.3-1c0,0,0-0.1,0-0.1c0.4,0.2,0.6,0.6,0.8,1c0,0,0-0.1,0.1-0.1
		c0.1-0.3,0.2-0.6,0.3-0.9c0-0.1,0-0.2-0.1-0.3c-0.1,0-0.2-0.1-0.2-0.1C9,4.5,8.8,4.3,8.7,4c0-0.2,0-0.4,0.1-0.6
		C9,2.8,9.2,2.1,9.4,1.5c0.2-0.4,0.4-0.8,0.7-1.2c0.1-0.1,0.2-0.2,0.3-0.3c0.1,0,0.1,0.1,0.1,0.1c-0.1,0.6,0,1.1,0.2,1.6
		c0.2,0.6,0.2,1.2,0.2,1.9c0,0.4-0.2,0.8-0.6,1c-0.1,0.1-0.2,0.1-0.3,0.2C9.9,4.8,9.8,4.9,9.7,5.1C9.6,5.4,9.5,5.8,9.3,6.1
		c0,0.1,0,0.3,0,0.4c0,0.3,0.1,0.5,0,0.8c0,0.5-0.2,0.9-0.4,1.3C8.7,9,8.5,9.4,8.4,9.9c0,0.1-0.1,0.2-0.1,0.2c0,0,0,0.1,0,0.1
		c0,0,0.1,0,0.1,0c0.5-0.4,1-0.8,1.5-1.2c0.4-0.4,0.9-0.8,1.3-1.2c0.1-0.1,0.2-0.3,0.2-0.4c0-0.6,0.3-1.1,0.8-1.3
		c0.3-0.2,0.7-0.3,1-0.3c0.6-0.1,1.2-0.1,1.7,0c0,0,0,0,0,0c0,0.1,0,0.1-0.1,0.2c-0.5,0.5-0.9,0.9-1.4,1.4c-0.3,0.3-0.6,0.4-0.9,0.5
		c-0.3,0.1-0.5,0.1-0.8,0c-0.2,0-0.4,0-0.6,0.2c-0.3,0.2-0.5,0.5-0.8,0.7C10,9,9.6,9.4,9.2,9.8c-0.4,0.4-0.8,0.7-1.3,0.9
		c-0.1,0.1-0.2,0.1-0.4,0.2c0.2,0,0.4,0,0.6,0c0.4,0,0.8-0.1,1.2-0.2c0.2-0.1,0.3-0.2,0.3-0.3C9.9,9.7,10.4,9.3,11,9
		c0.5-0.2,1-0.4,1.5-0.6c0.2-0.1,0.4-0.2,0.6-0.3c0.1,0,0.2-0.1,0.2-0.1c0,0,0,0,0,0c-0.1,0.5-0.3,1.1-0.7,1.5
		c-0.5,0.7-1.1,1.2-1.9,1.4c-0.4,0.1-0.8,0.1-1.2-0.1c-0.1,0-0.2-0.1-0.3-0.1c-0.5,0-1,0.1-1.4,0.1c-0.4,0-0.8,0.1-1.2,0.2
		c-0.3,0.1-0.6,0.2-0.8,0.5c-0.6,0.6-1.2,1.2-1.8,1.8c-0.4,0.4-0.8,0.7-1.1,1.2c-0.3,0.4-0.5,0.7-0.7,1.2C2.3,16,2.3,16,2.1,16
		c0,0,0-0.1,0-0.1c0.1-0.5,0.4-0.9,0.7-1.3C3.4,14,4,13.4,4.5,12.9C5,12.4,5.4,12,5.8,11.5c0.3-0.4,0.6-0.8,0.7-1.3
		C6.6,10,6.7,9.7,6.7,9.4c0-0.4,0-0.7,0-1.1c0-0.1,0-0.2-0.1-0.2C6.3,7.8,6,7.6,5.6,7.5C5.3,7.4,5,7.4,4.7,7.6
		c-0.1,0-0.2,0.1-0.3,0.2C3.8,8.1,3.1,8.3,2.5,8.5C2.2,8.6,2,8.6,1.7,8.7c-0.2,0.1-0.5,0-0.7,0c-0.1,0-0.1,0-0.1-0.1
		c0-0.1,0-0.1,0.1-0.1c0.2-0.1,0.3-0.3,0.4-0.4c0.2-0.2,0.3-0.4,0.4-0.6C2,7.2,2.1,7,2.4,6.8c0.5-0.4,1-0.5,1.6-0.3
		c0.3,0.1,0.5,0.2,0.7,0.3C5.3,7.2,6,7.5,6.6,7.8C6.7,7.9,6.7,7.8,6.6,7.8z M7.9,8.4C7.6,8.9,7.3,9.2,7,9.6C6.9,9.7,6.9,9.8,6.8,9.9
		c-0.2,0.4-0.3,0.8-0.5,1.2c0,0,0,0.1,0,0.1c0,0,0,0,0,0c0.5-0.2,1-0.5,1.5-0.7c0.1,0,0.1-0.1,0.2-0.1C8.1,10,8.3,9.6,8.5,9.2
		c0-0.1,0-0.2,0-0.2C8.3,8.8,8.1,8.6,7.9,8.4z M8.9,3.8c0,0.4,0.3,0.7,0.6,0.8c0.1,0,0.2,0,0.2-0.1c0,0,0-0.1,0-0.1
		c0-0.2,0-0.3,0.1-0.5C9.9,3.3,9.9,2.6,10,2c0-0.4,0.1-0.7,0.2-1.1c0-0.1,0.1-0.2,0.1-0.4c0,0,0-0.1,0-0.1c0,0-0.1,0-0.1,0.1
		c-0.1,0.1-0.1,0.2-0.2,0.2C9.7,1.2,9.5,1.6,9.4,2.1c-0.1,0.5-0.3,1-0.5,1.4C8.9,3.7,8.9,3.8,8.9,3.8z M8.6,8.9
		c0-0.2,0.1-0.4,0.1-0.6c0-0.2,0.1-0.4,0.1-0.6c0-0.2,0-0.4,0-0.6c0-0.2,0-0.4,0-0.6c0-0.2-0.1-0.4-0.1-0.6c0-0.2-0.1-0.4-0.2-0.6
		c0,0,0,0.1-0.1,0.1C8.3,5.8,8.2,6,8.1,6.3C8,6.6,7.9,6.9,7.9,7.2c0,0.2,0,0.4,0,0.6c0,0.3,0.1,0.5,0.3,0.8C8.3,8.7,8.4,8.8,8.6,8.9
		z M9.7,10.8C9.7,10.9,9.8,10.9,9.7,10.8c0.1,0.1,0.2,0.1,0.2,0.1c0.4,0.1,0.7,0.1,1.1-0.1c1-0.4,1.7-1.1,2.1-2.1
		c0-0.1,0.1-0.1,0-0.2C13,8.5,13,8.6,13,8.6c-0.3,0.2-0.5,0.5-0.8,0.7c-0.5,0.5-1.1,0.9-1.8,1.2C10.2,10.6,10,10.7,9.7,10.8z
		 M14.4,5.9c-1,0.3-1.9,0.9-2.7,1.6c0.3,0.1,0.5,0.1,0.7,0.1c0.5-0.1,0.8-0.3,1.1-0.7C13.9,6.6,14.2,6.3,14.4,5.9z M6.8,6.8
		c0.8-0.4,1.1-1.6,0.7-2.5c-0.1,0-0.1,0.1-0.2,0.1C7.2,4.6,7.1,4.7,7.1,4.9C7,5.1,6.9,5.3,6.9,5.6C6.8,6,6.8,6.4,6.8,6.8z M11.7,8.9
		c-0.4,0.1-0.7,0.3-1.1,0.5c-0.4,0.3-0.7,0.6-0.8,1.1c0,0,0,0.1,0,0.1c0,0,0,0,0,0c0.4-0.2,0.8-0.4,1.3-0.6c0.1-0.1,0.2-0.1,0.3-0.2
		C11.6,9.5,11.6,9.2,11.7,8.9z M10.7,2.9c0-0.1,0-0.2,0-0.2c-0.1-0.5-0.2-0.9-0.3-1.4c0,0,0-0.1,0-0.1c0,0,0,0-0.1,0c0,0,0,0-0.1,0
		c0,0,0,0.1,0,0.1c0,0.3-0.1,0.6-0.1,1c0,0.5-0.1,1-0.1,1.5c0,0,0,0.1,0,0.1c0,0,0.1,0,0.1,0c0.1-0.1,0.3-0.3,0.4-0.4
		C10.7,3.2,10.7,3.1,10.7,2.9z M2.3,7.1c0.1,0.1,0.3,0.1,0.5,0.2c0.3,0.1,0.6,0.1,0.8,0c0.2-0.1,0.5-0.1,0.7-0.1c0.1,0,0.3,0,0.4,0
		C4.6,6.9,4.5,6.8,4.3,6.8c-0.5-0.2-1-0.2-1.5,0C2.6,6.8,2.4,6.9,2.3,7.1z M1.9,8.4c1-0.2,1.9-0.5,2.8-1.1c0,0-0.1,0-0.1,0
		c-0.3,0-0.5,0-0.8,0.1c-0.5,0.1-1,0.4-1.4,0.7C2.2,8.2,2.1,8.3,1.9,8.4z M7.4,3.5C7.4,3.5,7.4,3.5,7.4,3.5C7.1,3.8,6.8,4,6.5,4.3
		C6.4,4.5,6.3,4.7,6.3,4.9c0,0.1,0,0.2,0,0.3c0.1,0.1,0.2,0.3,0.3,0.4c0,0,0,0.1,0.1,0.1C6.9,4.9,7.2,4.2,7.4,3.5z M13.1,5.8
		c-0.2,0-0.4,0.1-0.6,0.2C12,6.2,11.7,6.5,11.6,7c0,0.1,0,0.2,0,0.2c0.1,0,0.1,0,0.2-0.1C12.3,6.9,12.7,6.5,13,6
		C13,5.9,13.1,5.9,13.1,5.8z M8.8,8.5C8.9,8.3,9,8.2,9,8.2c0.2-0.5,0.3-1,0.2-1.6c0-0.2-0.1-0.5-0.3-0.7c0,0,0-0.1-0.1-0.1
		C8.8,6.7,8.8,7.6,8.8,8.5z M2.9,7.5C2.7,7.4,2.5,7.4,2.4,7.3c-0.2,0-0.2,0-0.3,0.1c-0.2,0.3-0.4,0.6-0.7,1c0,0-0.1,0.1,0,0.1
		c0.1,0.1,0.1,0,0.1,0c0,0,0,0,0,0c0.4-0.3,0.9-0.6,1.3-0.9C2.8,7.6,2.9,7.6,2.9,7.5z M6.5,6.8c0.2-0.5,0.1-1.1-0.4-1.5
		C6,5.7,6.1,6.4,6.5,6.8z M10.7,3.5C10.7,3.5,10.7,3.5,10.7,3.5c-0.2,0.2-0.4,0.3-0.6,0.5C10,4,9.9,4.2,9.9,4.4c0,0,0,0.1,0,0.1
		c0,0.1,0,0.1,0.1,0.1c0.3-0.1,0.5-0.2,0.6-0.5C10.7,3.9,10.7,3.7,10.7,3.5z M11.7,9.6c0.4-0.3,0.7-0.6,1.1-1
		c-0.3,0-0.6,0.1-0.7,0.2C11.8,9,11.7,9.3,11.7,9.6z M13,6.3c0.4-0.2,0.9-0.4,1.3-0.6c-0.2,0-0.4,0-0.5,0c-0.2,0-0.4,0.1-0.5,0.2
		C13.1,6,13,6.1,13,6.3z M7.5,3.8C7.4,3.9,7.4,4,7.4,4.1c0,0.1-0.1,0.1-0.1,0.2C7.6,4.2,7.6,4.1,7.5,3.8z"/>
	<path class="st0" d="M8.9,3.8c0-0.1,0-0.2,0-0.2c0.2-0.5,0.3-1,0.5-1.4c0.1-0.5,0.3-1,0.6-1.4c0.1-0.1,0.1-0.2,0.2-0.2
		c0,0,0-0.1,0.1-0.1c0.1,0,0,0.1,0,0.1c0,0.1-0.1,0.2-0.1,0.4C10.1,1.2,10,1.6,10,2c-0.1,0.7-0.1,1.3-0.2,2c0,0.2,0,0.3-0.1,0.5
		c0,0,0,0.1,0,0.1c0,0.1-0.1,0.2-0.2,0.1C9.1,4.6,8.9,4.2,8.9,3.8z"/>
	<path class="st0" d="M8.6,8.9C8.4,8.8,8.3,8.7,8.2,8.6C8.1,8.3,8,8.1,8,7.8c0-0.2,0-0.4,0-0.6c0-0.3,0.1-0.6,0.2-0.9
		C8.2,6,8.3,5.8,8.4,5.5c0,0,0-0.1,0.1-0.1c0.1,0.2,0.1,0.4,0.2,0.6c0,0.2,0.1,0.4,0.1,0.6c0,0.2,0,0.4,0,0.6c0,0.2,0,0.4,0,0.6
		c0,0.2,0,0.4-0.1,0.6C8.7,8.5,8.6,8.7,8.6,8.9z"/>
	<path class="st0" d="M9.7,10.8c0.2-0.1,0.5-0.2,0.7-0.3c0.7-0.3,1.2-0.7,1.8-1.2c0.3-0.2,0.5-0.5,0.8-0.7c0,0,0.1-0.1,0.1-0.1
		c0,0.1,0,0.2,0,0.2c-0.4,1-1.1,1.7-2.1,2.1c-0.3,0.1-0.7,0.2-1.1,0.1C9.9,10.9,9.8,10.9,9.7,10.8C9.8,10.9,9.7,10.9,9.7,10.8z"/>
	<path class="st0" d="M14.4,5.9c-0.3,0.3-0.5,0.7-0.8,1c-0.3,0.3-0.7,0.6-1.1,0.7c-0.2,0-0.5,0-0.7-0.1C12.5,6.8,13.4,6.2,14.4,5.9z
		"/>
	<path class="st0" d="M6.8,6.8c0-0.4,0-0.8,0.1-1.2C6.9,5.3,7,5.1,7.1,4.9c0-0.1,0.1-0.3,0.2-0.3c0.1,0,0.1-0.1,0.2-0.1
		C7.9,5.2,7.6,6.4,6.8,6.8z"/>
	<path class="st0" d="M11.7,8.9c-0.1,0.3-0.1,0.6-0.3,0.8c-0.1,0.1-0.2,0.2-0.3,0.2c-0.4,0.2-0.8,0.4-1.3,0.6c0,0,0,0,0,0
		c0,0,0-0.1,0-0.1c0.1-0.5,0.4-0.8,0.8-1.1C10.9,9.2,11.3,9.1,11.7,8.9z"/>
	<path class="st0" d="M10.7,2.9c0,0.2-0.1,0.3-0.2,0.5c-0.1,0.2-0.3,0.3-0.4,0.4c0,0-0.1,0-0.1,0c0,0,0-0.1,0-0.1
		c0-0.5,0.1-1,0.1-1.5c0-0.3,0.1-0.6,0.1-1c0,0,0-0.1,0-0.1c0,0,0,0,0.1,0c0,0,0.1,0,0.1,0c0,0,0,0.1,0,0.1c0.1,0.5,0.3,0.9,0.3,1.4
		C10.7,2.7,10.7,2.8,10.7,2.9z"/>
	<path class="st0" d="M2.3,7.1c0.1-0.2,0.3-0.3,0.5-0.4c0.5-0.2,1-0.2,1.5,0c0.2,0.1,0.3,0.2,0.5,0.3c-0.2,0-0.3,0-0.4,0
		c-0.2,0-0.5,0.1-0.7,0.1c-0.3,0.1-0.5,0.1-0.8,0C2.6,7.2,2.5,7.2,2.3,7.1z"/>
	<path class="st0" d="M1.9,8.4c0.1-0.1,0.3-0.2,0.4-0.3c0.4-0.3,0.9-0.6,1.4-0.7c0.3-0.1,0.5-0.1,0.8-0.1c0,0,0.1,0,0.1,0
		C3.9,7.9,2.9,8.2,1.9,8.4z"/>
	<path class="st0" d="M7.4,3.5C7.2,4.2,6.9,4.9,6.7,5.6c-0.1,0-0.1,0-0.1-0.1C6.5,5.4,6.4,5.3,6.3,5.2C6.2,5.1,6.2,5,6.3,4.9
		c0.1-0.2,0.1-0.4,0.2-0.5C6.8,4,7.1,3.8,7.4,3.5C7.4,3.5,7.4,3.5,7.4,3.5z"/>
	<path class="st0" d="M13.1,5.8c0,0.1,0,0.1-0.1,0.2c-0.3,0.5-0.7,0.9-1.2,1.2c-0.1,0-0.1,0.1-0.2,0.1c-0.1,0,0-0.1,0-0.2
		C11.7,6.5,12,6.2,12.5,6C12.7,5.9,12.9,5.8,13.1,5.8z"/>
	<path class="st0" d="M8.8,8.5c0-0.9,0-1.7,0-2.6c0,0,0.1,0,0.1,0.1c0.2,0.2,0.2,0.4,0.3,0.7c0.1,0.5,0,1.1-0.2,1.6
		C9,8.2,8.9,8.3,8.8,8.5z"/>
	<path class="st0" d="M2.9,7.5c0,0.1-0.1,0.1-0.1,0.1C2.4,7.9,1.9,8.2,1.5,8.5c0,0,0,0,0,0c0,0-0.1,0.1-0.1,0c0-0.1,0-0.1,0-0.1
		c0.2-0.3,0.4-0.6,0.7-1c0.1-0.1,0.2-0.2,0.3-0.1C2.5,7.4,2.7,7.4,2.9,7.5z"/>
	<path class="st0" d="M6.5,6.8C6.1,6.4,6,5.7,6.2,5.3C6.6,5.7,6.8,6.3,6.5,6.8z"/>
	<path class="st0" d="M10.7,3.5c0,0.2,0,0.5-0.1,0.7c-0.1,0.2-0.3,0.4-0.6,0.5c-0.1,0-0.1,0-0.1-0.1c0,0,0-0.1,0-0.1
		c0-0.2,0.1-0.4,0.3-0.5C10.3,3.8,10.5,3.7,10.7,3.5C10.7,3.5,10.7,3.5,10.7,3.5z"/>
	<path class="st0" d="M11.7,9.6c-0.1-0.3,0.1-0.6,0.3-0.8c0.2-0.1,0.5-0.2,0.7-0.2C12.4,9,12.1,9.3,11.7,9.6z"/>
	<path class="st0" d="M7.5,3.8c0.1,0.3,0.1,0.4-0.2,0.5c0-0.1,0-0.2,0.1-0.2C7.4,4,7.4,3.9,7.5,3.8z"/>
	<path class="st2" d="M6.6,7.8C6.7,7.8,6.7,7.9,6.6,7.8C6.6,7.8,6.6,7.8,6.6,7.8z"/>
</g>
</svg>
