<?xml version="1.0" encoding="utf-8"?>
<!-- Generator: Adobe Illustrator 23.1.0, SVG Export Plug-In . SVG Version: 6.00 Build 0)  -->
<svg version="1.1" id="Capa_1" xmlns="http://www.w3.org/2000/svg" xmlns:xlink="http://www.w3.org/1999/xlink" x="0px" y="0px"
	 viewBox="0 0 841.9 212.8" style="enable-background:new 0 0 841.9 212.8;" xml:space="preserve">
<style type="text/css">
	.st0{fill:#040404;}
	.st1{fill:#050505;}
	.st2{fill:#060606;}
	.st3{fill:#030303;}
	.st4{fill:#E1E6E6;}
	.st5{fill:#DEE2E2;}
	.st6{fill:#E8ECEC;}
	.st7{fill:#C9D0D0;}
	.st8{fill:#579764;}
	.st9{fill:#A4AAAA;}
	.st10{fill:#0B0A09;}
	.st11{fill:#F9F8F8;}
	.st12{fill:#FBFCFC;}
	.st13{fill:#FFFFFF;}
</style>
<path class="st0" d="M272.6,96.1c0,0.8,0,1.5,0,2.3c0,21.3,0,42.6,0,63.9c0,0.5,0,1.1,0,1.6c0,0.8-0.3,1.1-1.1,1.1
	c-4.7,0-9.5,0-14.2,0c-0.9,0-1.1-0.4-1-1.1c0-0.5,0-1,0-1.4c0-37.4,0-74.7,0-112.1c0-0.7,0-1.5,0-2.2c1-0.4,1.8-0.2,2.6-0.2
	c4.3,0,8.5,0,12.8,0c1.9,0,1.9,0,2.5,1.9c4.6,13.2,9.2,26.4,13.8,39.6c3,8.5,6,17.1,9,25.6c0.2,0.4,0.1,1,0.7,1.3
	c0.6-0.8,0.8-1.8,1.1-2.7c7.4-21.3,14.9-42.6,22.3-63.9c0.6-1.8,0.6-1.8,2.5-1.8c4.6,0,9.2,0,13.8,0c1.5,0,1.5,0,1.5,1.4
	c0,0.3,0,0.7,0,1c0,37.4,0,74.7,0,112.1c0,2.5,0,2.5-2.5,2.5c-3.9,0-7.7,0-11.6,0c-2.5,0-2.3,0.3-2.3-2.4c0-13,0-26,0-38.9
	c0-8.6,0-17.2,0-25.8c0-0.7,0-1.3,0-2.2c-0.8,0.4-0.8,1.2-1,1.8c-4.9,14-9.8,28.1-14.7,42.1c-0.7,1.9-0.7,2-2.7,2
	c-4.5,0-8.9,0-13.4,0c-1.9,0-1.9,0-2.5-1.9c-4.9-14-9.8-28.1-14.7-42.1c-0.2-0.6-0.4-1.1-0.6-1.7C272.9,96,272.8,96,272.6,96.1z
	 M330.7,97.9c0.7-0.5,1.1-1.1,1.5-1.8c-0.8,0.5-1.5,1-2.1,1.8c-0.5,0.4-1,0.7-1.3,1.3c-4.5,3.8-5.1,4.4-5.1,6.2c2-2.2,4-4,5.7-6.1
	C330,98.9,330.4,98.3,330.7,97.9z M266.2,161.7c-0.7,0.6-1.4,1.2-2.5,2.1c2,0,2.3-1.4,3.1-2.1c0.4-0.3,0.7-0.5,0.7-1.1
	C266.9,160.8,266.5,161.2,266.2,161.7z M328.9,52.9c-0.8,0.5-1.2,1.2-1.6,1.9c0.6-0.4,1.3-0.7,1.6-1.4c1.7-1.3,3.3-2.8,5-4.4
	c-1-0.4-1.5-0.1-1.9,0.4C331,50.6,329.9,51.7,328.9,52.9z M330.4,82.2c-0.7,0.4-1.1,1.1-1.5,1.8c0.8-0.4,1.6-0.9,2-1.7
	c2.1-1.9,4.2-3.9,6.3-5.8c0.6-0.5,1-1,0.4-2.1C335.2,77,332.8,79.6,330.4,82.2z M286.8,110.1c-1.9,1.8-3.7,3.6-5.2,5.8
	c2.3-1.6,4.3-3.6,6.3-5.7c1.4-1.3,2.8-2.6,4.2-3.9c0.6-0.6,0.7-1.1-0.2-1.7C290.2,106.4,288.5,108.3,286.8,110.1z M334.3,155.1
	c-3.1,2.7-6.1,5.5-9.1,8.5c1.3,0.4,2,0.1,2.8-0.7c2.3-2.4,4.6-4.8,6.8-7.4c0.7-0.5,1.3-1.2,1.6-2
	C335.5,153.9,334.8,154.5,334.3,155.1z M287.6,125.6c3-2.3,5.7-4.9,8.3-7.6c0.6-0.6,1-1.2,0.1-2c-3.3,2.9-6.3,6-8.9,9.5
	c-0.3,0-0.5,0.4-0.4,0.5c0.1,0.3,0.4,0.1,0.6,0C287.4,125.9,287.5,125.8,287.6,125.6z M320.2,76.8c-3.5,3.3-7,6.6-10.5,9.9
	c-1,0.9-1.4,2-1.3,3.4c4.1-4.3,8.2-8.6,12.2-12.9c1.1-0.7,1.7-1.8,2.4-2.8C322.1,75,321,75.8,320.2,76.8z M319.5,93.8
	c0.4-0.2,0.8-0.5,0.6-1.1c0-0.1-0.6,0.1-0.7,0.5c-1,0.2-1.5,1.1-2.2,1.7c-3.4,2.9-6.6,6-9.3,9.6c-0.5,0.4-0.8,0.8-1,1.7
	c0.8-0.5,1.3-0.8,1.7-1.3C312.6,101.6,316.3,97.9,319.5,93.8z M315.3,112.1c-9,8.8-17.7,17.5-26,26.4c-0.1,0.1-0.1,0.4,0.2,0.7
	c0.5-0.5,1.1-0.9,1.6-1.4c7.5-7.1,15-14.4,22.2-21.7C314.3,115,315,113.9,315.3,112.1z M257.6,94.6C265.2,87,272.6,79.5,280,72
	c0.2-0.2,0.4-0.5,0.6-0.8c0.1-0.2,0-0.4-0.2-0.5c-0.1,0-0.3-0.1-0.4,0c-0.3,0.3-0.6,0.5-0.9,0.8c-4.7,4.6-9.3,9.2-14,13.7
	c-2.3,2.3-4.6,4.6-6.9,6.8C257.6,92.7,257,93.4,257.6,94.6z M276.3,59c-0.6,0-0.7,0.3-1,0.5c-4.1,4.2-8.3,8.4-12.4,12.6
	c-1.6,1.6-3.2,3.2-4.7,4.9c-0.5,0.5-1.1,1-0.5,1.9c1.5-1.4,2.9-2.8,4.3-4.2c4.6-4.5,9.2-9.1,13.8-13.6C276.4,60.5,277,59.9,276.3,59
	z M271.4,109.5c-4.7,4.7-9.1,9.2-13.6,13.6c-0.7,0.7-0.6,1.4-0.3,2.4c4.6-4.6,9.1-9.1,13.5-13.5
	C271.7,111.4,271.7,110.7,271.4,109.5z M272.7,48.9c-1.3-0.1-2.1-0.2-2.8,0.5c-4,4.1-8.1,8.3-12.1,12.4c-0.5,0.5-0.7,1-0.2,1.8
	C262.6,58.8,267.5,54,272.7,48.9z M323.7,151.4c0.3-0.1,0.4-0.1,0.5-0.2c4.4-4.4,8.8-8.8,13.2-13.2c0.6-0.6,0.6-1.2,0.4-1.9
	c-0.2,0.1-0.4,0.1-0.6,0.3c-4.3,4.3-8.7,8.6-13,12.9C323.6,149.8,323.6,150.5,323.7,151.4z M323.9,135.8c4.6-4.5,9.1-8.9,13.6-13.3
	c0.5-0.5,0.6-1.1,0.2-2c-4.7,4.8-9.3,9.5-13.8,14.2C323.6,134.9,323.6,135.2,323.9,135.8z M257.6,156.1c0.9-0.9,1.7-1.7,2.5-2.5
	c3.6-3.7,7.2-7.4,10.8-11.1c0.4-0.4,1-0.7,0.5-1.6c-4.5,4.4-9,8.7-13.4,13C257.3,154.5,257.1,155.2,257.6,156.1z M257.7,109.5
	c0.8-0.8,1.7-1.7,2.6-2.5c3.5-3.4,7-6.8,10.4-10.2c0.6-0.6,1.2-1.2,0.6-2.4c-4.7,4.8-9.5,9.4-13.9,14.3
	C257.3,109,257.4,109.2,257.7,109.5z M284.2,81.8c-3.6,3.4-7,6.8-10.5,10.2c-0.4,0.4-0.8,1-0.3,1.4c0.6,0.6,0.9-0.2,1.3-0.5
	c3.1-3.1,6.2-6.2,9.4-9.2C284.7,83.1,284.8,82.5,284.2,81.8z M277.5,105.2c3.6-3.5,7.2-6.9,10.7-10.4c0.5-0.5,0.5-0.9,0.1-1.4
	c-0.1,0-0.3,0-0.4,0.1c-3.4,3.4-6.8,6.7-10.3,10.1C277,104,277.2,104.5,277.5,105.2z"/>
<path class="st1" d="M185.4,116.7c0-0.7,0-1.5,0-2.2c0-21.4,0-42.9,0-64.3c0-2.5-0.5-2.3,2.3-2.3c4,0,8,0,12,0
	c0.7,0,1.4-0.1,2.1,0.2c0,0.7,0,1.3,0,2c0,37.5,0,75,0,112.5c0,2.5,0.4,2.3-2.3,2.3c-4.2,0-8.4,0-12.6,0c-2.9,0-2.3,0.4-3.2-2.2
	c-5.7-16.2-11.3-32.4-16.9-48.5c-2-5.6-3.9-11.3-5.9-16.9c-0.2-0.4-0.3-0.9-0.5-1.4c-0.6,0.8-0.4,1.6-0.4,2.3c0,21.3,0,42.6,0,63.9
	c0,3.3,0.4,2.8-2.8,2.8c-4,0-8,0-12,0c-1.5,0-1.5,0-1.5-1.4c0-0.4,0-0.8,0-1.2c0-37.3,0-74.6,0-111.9c0-2.5,0-2.5,2.5-2.5
	c4.3,0,8.7,0,13,0c1.8,0,1.7-0.4,2.4,1.8c6.4,18.4,12.9,36.9,19.3,55.3c1.4,3.9,2.8,7.8,4.1,11.8
	C185.1,116.7,185.2,116.7,185.4,116.7z M195.3,148.3c-0.5,0.5-1.2,1-1.3,1.8c0.9-0.4,1.5-1,2.1-1.8c0.8-0.9,1.8-1.6,2.5-2.6
	c0.8-0.7,1.8-1.3,1.9-2.6c-0.8,0.8-1.6,1.7-2.4,2.5C196.9,146.4,196.2,147.5,195.3,148.3z M195.7,70.9c-1.2,1.3-2.7,2.3-3.7,3.8
	c-1.8,1.8-3.9,3.4-5.4,5.5c0,0.1,0.1,0.2,0.2,0.6c1.8-1.9,3.6-3.8,5.4-5.6c1.6-1.2,2.8-2.9,4.3-4.3c0.5-0.5,1.2-1,1.7-2
	C196.8,69.5,196.3,70.2,195.7,70.9z M154.9,143.3c1.5-1.3,2.8-2.7,3.9-4.4c-1.6,1.2-3.1,2.4-4.4,3.9c-3,2.8-6,5.7-8.9,8.5
	c-0.6,0.6-1.2,1.2-0.5,2.2C148.4,150.1,151.6,146.7,154.9,143.3z M191.1,106.2c-0.5,0.4-0.9,0.8-1,1.5c0.8-0.3,1.3-0.7,1.7-1.2
	c2.9-2.3,5.5-4.9,8-7.6c0.6-0.6,1.2-1.2,0.6-2.3C197,99.5,193.9,102.6,191.1,106.2z M182.4,115.1c-3.8,2.7-7,6.1-10.1,9.5
	c-0.2,0.2-0.3,0.4-0.4,0.7c0,0.1,0.1,0.4,0.2,0.5c0.1,0.1,0.3,0.1,0.4,0c0.2-0.1,0.5-0.3,0.7-0.5c3.4-3,6.6-6.1,9.3-9.8
	c0.3-0.1,0.6-0.4,0.4-0.7C182.8,114.7,182.5,114.8,182.4,115.1z M200.5,112c-0.4,0-0.6,0.3-0.8,0.6c-5.1,5-10.2,10.1-15.2,15.1
	c-2.6,2.6-5.2,5.3-7.7,8c-0.4,0.4-1.3,0.8-0.6,1.8c0.9-0.3,1.4-1.1,2-1.7c7.3-6.9,14.5-14.1,21.5-21.3
	C200.3,113.8,201.1,113.1,200.5,112z M167.1,68.8c-0.6,0.1-0.9,0.6-1.3,1c-3.7,3.6-7.5,7.3-11.2,10.9c-3,3-6,6-9.1,9
	c-0.6,0.6-1.2,1.3-0.6,2.4c0.3-0.3,0.6-0.5,0.8-0.7c3.9-3.9,7.7-7.8,11.6-11.7c2.9-3,5.9-6,8.8-9C166.6,70.2,167.5,69.8,167.1,68.8z
	 M145,76.5c1.6-1.6,3.2-3.1,4.7-4.6c4.3-4.2,8.5-8.4,12.8-12.6c0.7-0.7,1.4-1.3,0.3-2.2c-3.3,3.2-6.5,6.4-9.7,9.6
	c-2.5,2.5-5,5.1-7.5,7.6C145,74.9,144.3,75.5,145,76.5z M158.8,107.5c-0.1,0-0.2,0-0.2,0c-4.4,4.4-8.9,8.8-13.3,13.1
	c-0.7,0.7-0.7,1.4-0.4,2.4c0.8-0.8,1.5-1.4,2.2-2.1c3.7-3.7,7.3-7.4,11-11C158.8,109.2,159.3,108.5,158.8,107.5z M186.7,65.7
	c0.9-0.4,1.3-1.2,1.9-1.8c3.7-3.7,7.4-7.5,11.2-11.2c0.6-0.6,1.3-1.2,0.5-2.2c-4.4,4.4-8.8,8.7-13.2,13
	C186.4,64.1,186.3,64.8,186.7,65.7z M186.7,96.7c1.7-1.7,3.1-3.1,4.5-4.6c2.9-3,5.7-5.9,8.6-8.9c0.4-0.5,1.2-0.8,0.7-1.7
	c-0.3,0-0.5,0.2-0.7,0.4c-4.2,4.1-8.4,8.1-12.6,12.1C186.5,94.8,186.4,95.5,186.7,96.7z M158.7,91.8c-1.6,1.6-2.9,3-4.3,4.4
	c-2.9,2.9-5.8,5.9-8.6,8.8c-0.5,0.5-1.4,1-0.8,2.2c4.6-4.5,9-8.8,13.4-13.2C159,93.5,159.1,92.9,158.7,91.8z M157.2,48.9
	c-1-0.2-1.7-0.2-2.5,0.6c-3.1,3.2-6.2,6.3-9.4,9.5c-0.6,0.6-0.8,1.3-0.3,2.4C149.1,57.2,153.1,53.1,157.2,48.9z M170.6,79.7
	c-1,1.1-1.9,2.1-2.9,3.1c-2.4,2.4-4.7,4.8-7.1,7.1c-0.7,0.7-1,1.3,0,2.3c1.2-1.3,2.4-2.7,3.6-3.9c2.1-2.1,4.3-4.3,6.4-6.4
	C171.3,81.3,171.7,80.7,170.6,79.7z M178.7,102.5c-3.6,3.8-7.1,7.4-10.6,11.1c-0.3,0.3-0.2,0.6,0.2,1.1c3.5-3.4,7.1-6.8,10.6-10.2
	C179.5,103.9,179.3,103.4,178.7,102.5z M164.3,103.3c3-3,6-5.9,9-8.8c0.6-0.6,1.1-1.2,1.7-1.8c0.4-0.4,0.3-0.8,0-1.1
	c-0.4-0.3-0.6,0.1-0.8,0.3c-3.3,3.2-6.5,6.4-9.8,9.7C163.8,102.1,163.7,102.6,164.3,103.3z M200.6,158.4c-1.8,1.8-3.7,3.7-5.4,5.4
	c0.8,0.3,1.7-0.2,2.4-1c0.7-0.8,1.4-1.5,2.1-2.2C200.6,159.9,200.9,159.1,200.6,158.4z M150.5,162.6c-0.6,0.2-1.1,0.5-1.4,1.1
	C150.1,163.9,150.2,163.1,150.5,162.6z"/>
<path class="st2" d="M565,93.2c0-14.3,0-28.6,0-42.9c0-0.5,0-1,0-1.4c-0.1-0.8,0.2-1.1,1.1-1.1c4.7,0,9.5,0,14.2,0
	c0.8,0,1.1,0.4,1,1.1c0,0.5,0,1,0,1.4c0,28,0,55.9,0,83.9c0,1.7,0,3.4,0.5,5.1c1.7,6,7.3,9.8,13.7,9.2c5.9-0.6,10.7-5.6,11.2-11.6
	c0.1-1,0.1-1.9,0.1-2.9c0-28,0-55.9,0-83.9c0-2.6-0.4-2.3,2.3-2.3c4.2,0,8.4,0,12.6,0c1.4,0,1.5,0,1.5,1.5c0,8.5,0,17,0,25.5
	c0,20.3,0,40.7,0,61c0,13.4-9,24.9-22,28.2c-16.8,4.3-33.7-7.3-35.8-24.5c-0.2-1.6-0.3-3.1-0.3-4.7C565,121,565,107.1,565,93.2z
	 M612.8,102.1c0.9-0.8,1.9-1.5,2.6-2.5c1.9-1.8,3.9-3.6,5.8-5.5c0.6-0.6,1.2-1.1,0.5-2.2c-2.3,2.4-4.5,4.8-6.8,7.2
	c-1.1,0.8-1.9,1.9-2.8,2.9c-0.5,0.5-1.1,0.9-1.4,2.1C611.7,103.2,612.3,102.8,612.8,102.1z M617.4,127.5c-0.8,0.8-1.7,1.7-2.5,2.5
	c-2.1,2-4.3,4.1-6.4,6.1c-0.5,0.5-1,0.9-0.5,1.9c2.5-2.6,4.9-5.1,7.3-7.6c0.9-1,1.9-1.9,2.8-2.9c0.5-0.5,1.2-0.8,1.2-1.7
	C618.5,126.3,617.9,126.9,617.4,127.5z M577.3,59.9c-3.5,3.4-7,6.7-10.5,10.1c-0.5,0.5-1,1-0.3,1.9c3.7-3.8,7.3-7.6,10.9-11.4
	c1.1-0.9,2.1-1.8,2.7-3.1C579.1,58,578.1,58.8,577.3,59.9z M576.9,106.5c-3.4,3.2-6.7,6.4-10.1,9.6c-0.5,0.5-0.9,1-0.4,2
	c3.7-3.9,7.4-7.7,11.1-11.5c2.3-2,2.4-2.2,2.6-3.3C578.9,104.3,577.7,105.3,576.9,106.5z M621.8,138.2c-4.3,3.3-24.2,23.8-24.9,25.5
	c0.7,0.1,1.1-0.4,1.6-0.9c7.7-7.3,15.2-14.7,22.6-22.3C621.7,139.9,622.1,139.3,621.8,138.2z M608.1,76.5c1-1,2-1.9,3-2.8
	c3.4-3.2,6.7-6.6,9.9-10.1c0.5-0.5,1.4-1,0.8-2.2c-4.7,4.2-9.1,8.6-13.4,13.1C607.8,75,607.7,75.6,608.1,76.5z M621.7,76.1
	c-4.6,4.7-8.9,9.1-13.2,13.5c-0.7,0.7-0.9,1.4-0.4,2.2c4.5-4.4,8.9-8.8,13.4-13.1C622.1,78,622.1,77.4,621.7,76.1z M580.2,87.6
	c-4.6,4.4-9,8.8-13.5,13.1c-0.6,0.5-0.8,1.1-0.4,1.8c0.1,0,0.3,0,0.4-0.1c4.3-4.3,8.7-8.6,13-12.9C580.3,88.9,580.5,88.3,580.2,87.6
	z M596.5,149.6c-1.3-0.2-2,0.3-2.7,0.9c-2.1,2.1-4.2,4.1-6.3,6.2c-1.5,1.5-3.1,3.1-4.7,4.6c1.4,0.6,1.4,0.6,2-0.1
	c1.4-1.4,2.8-2.8,4.2-4.2C591.5,154.7,593.9,152.2,596.5,149.6z M580.2,133.6c-0.5,0-0.7,0.4-1,0.7c-2.1,2.1-4.3,4.3-6.4,6.4
	c-1.4,1.4-2.8,2.8-4.2,4.3c-0.6,0.6-0.9,1.2,0,1.9c3.7-3.6,7.3-7.3,11-10.9C580.3,135.2,580.5,134.5,580.2,133.6z M608.1,61.2
	c4.1-4.1,8.1-8.1,12.2-12.2c-1.3-0.4-2,0-2.6,0.7c-2.9,3-5.9,5.9-8.9,8.8C608,59.3,607.6,60,608.1,61.2z M580.1,118.1
	c-4.6,4.5-9,8.9-13.4,13.3c-0.5,0.5-1,1.1-0.1,2.1c4.4-4.5,8.8-8.9,13.1-13.3C580.4,119.6,580.4,119,580.1,118.1z M618.3,111.4
	c1.3-1,2.8-1.9,3.4-3.6C620.5,109,619.4,110.2,618.3,111.4z M575.9,153.7c-0.6,0.5-1.1,1-1.7,1.6
	C575.1,155.1,575.6,154.5,575.9,153.7z M607.8,122.3c0.9-0.5,1.3-1.1,1.5-1.8C608.8,120.9,607.9,121.1,607.8,122.3z M620.2,124.9
	l0.1,0L620.2,124.9L620.2,124.9z"/>
<path class="st0" d="M126.8,164.7c-0.5,0.3-1.1,0.2-1.6,0.2c-4.3,0-8.5,0-12.8,0c-1.9,0-1.9,0-2.2-1.8c-0.8-4.5-1.6-8.9-2.4-13.4
	c-0.1-0.9-0.4-1.1-1.3-1.1c-5.6,0-11.3,0-16.9,0c-1,0-1.2,0.4-1.4,1.3c-0.7,4.4-1.6,8.8-2.3,13.2c-0.3,1.8-0.3,1.8-2.2,1.9
	c-4.8,0-9.6,0-14.6,0c0.2-2.7,0.8-5.2,1.2-7.8c2.3-12.9,4.6-25.8,6.9-38.7c2.1-12.1,4.3-24.2,6.5-36.3c1.9-10.9,3.9-21.9,5.8-32.8
	c0.3-1.5,0.3-1.5,1.7-1.5c4.5,0,9.1,0,13.6,0c1.1,0,1.5,0.3,1.7,1.4c2.7,15.6,5.5,31.2,8.3,46.8c2.8,15.9,5.7,31.7,8.5,47.6
	c1.1,6.3,2.3,12.7,3.4,19C126.8,163.4,127,164,126.8,164.7z M84.2,146.1c-0.9,0.8-1.7,1.7-2.3,2.8c1-0.7,2-1.4,2.7-2.4
	c0.8-0.6,1.5-1.2,2.1-2c4-3.5,7.6-7.2,11.5-11c-1.2-0.4-2-0.1-2.7,0.6c-3.1,3.3-6.3,6.4-9.3,9.9C85.5,144.6,84.9,145.4,84.2,146.1z
	 M110.6,104.4c-0.9,0.8-1.8,1.5-2.5,2.5c-4.6,4-5.5,5.1-5.7,6.7c2.2-2.3,4.1-4.3,6.1-6.4c1.1-0.8,1.9-1.9,2.8-2.9
	c0.8-0.7,1.5-1.4,2-2.3C112.3,102.7,111.4,103.5,110.6,104.4z M91.3,62.9c1.1-0.9,2-2,2.8-3.2c-1.1,0.8-2.1,1.5-2.9,2.6
	c-1.3,1.3-3.2,2.2-3.6,4.2C89,65.5,90.2,64.2,91.3,62.9z M92.1,92.1c-2,1.9-3.9,3.8-5.9,5.7c-1.5,1.5-3,3-4.5,4.5
	c-0.5,0.5-1.1,1-0.5,2c3.8-3.9,7.6-7.8,11.4-11.7c2.9-2.9,5.8-5.9,8.7-8.8c-0.1-0.1-0.2-0.2-0.3-0.3C97.9,86.3,94.9,89.1,92.1,92.1z
	 M104.7,132.4c-2.2-12.5-4.4-24.8-6.6-37c-0.1,0-0.2,0-0.3,0c-2.2,12.3-4.4,24.6-6.6,37C95.8,132.4,100.1,132.4,104.7,132.4z
	 M84.2,85.8c0.6-0.1,0.8-0.5,1.1-0.8c3.3-3.4,6.7-6.7,10-10.1c3.8-3.9,7.7-7.9,11.5-11.8c0.4-0.5,1.2-0.8,0.8-1.7
	c-0.4,0-0.6,0.2-0.9,0.5C99.5,68.9,92.3,76,85.1,83.1C84.3,83.8,84.1,84.6,84.2,85.8z M91.7,123.1c-0.2,0-0.2,0-0.3,0
	c-5.4,5.3-10.8,10.7-16.3,16c-0.8,0.8-1.1,1.6-0.9,2.3c5.5-5.4,11.1-10.8,16.7-16.2C91.6,124.7,91.9,124,91.7,123.1z M77.7,123.1
	c0.3-0.2,0.5-0.3,0.6-0.5c5.3-5.2,10.5-10.4,15.8-15.6c0.8-0.8,1-1.7,1-3.1c-0.7,0.6-1.1,1-1.5,1.5c-2.9,2.9-5.8,5.8-8.7,8.8
	c-2.1,2.1-4.1,4.2-6.2,6.3C78,121.1,77.4,121.8,77.7,123.1z M121.1,139.6c-3.8,3.7-7.5,7.4-11.3,11c-0.8,0.8-0.7,1.4-0.3,2.5
	c2-2,3.8-3.9,5.6-5.7c1.9-2,3.8-3.9,5.7-5.9C121.6,141,122.1,140.4,121.1,139.6z M105,126.8c1.7-1.7,3.3-3.3,5-4.9
	c2.1-2.1,4.2-4.3,6.3-6.5c0.5-0.5,1.1-0.9,0.3-1.8c-3.9,3.8-7.7,7.5-11.6,11.3C104.3,125.5,104.5,126.1,105,126.8z M108.9,137.4
	c3.8-2.6,7-5.7,10-9.1c0.4-0.5,0.6-1,0.1-1.7C115.1,129.8,111.7,133.3,108.9,137.4z M112.1,87.1c-1.9,1.9-3.6,3.5-5.3,5.2
	c-2,2-4.1,4.1-6.1,6.1c-0.6,0.6-1.1,1.2-0.3,2.1c0.1,0,0.2,0,0.2,0c3.8-3.8,7.5-7.6,11.3-11.3C112.4,88.6,112.4,88,112.1,87.1z
	 M101.1,145.1c-1.2,0.6-2.3,1.3-3.1,2.6C100,147.9,100.4,146.3,101.1,145.1z M114.2,101.1L114.2,101.1l0,0.1L114.2,101.1z"/>
<path class="st1" d="M490,106.3c0-18.8,0-37.5,0-56.3c0-2.4-0.3-2.2,2.2-2.2c17.9,0,35.8,0,53.6,0c2.6,0,2.2-0.2,2.2,2.2
	c0,4.1,0,8.1,0,12.2c0,2.1,0.3,1.9-2,1.9c-12.4,0-24.8,0-37.1,0c-0.3,0-0.7,0-1,0c-1.5,0-1.5,0-1.5,1.6c0,10.3,0,20.6,0,30.9
	c0,1.6,0,1.7,1.7,1.7c7.4,0,14.7,0,22.1,0c2,0,1.8,0,1.8,1.8c0,4.3,0,8.5,0,12.8c0,1.8,0,1.6-1.7,1.6c-7.2,0-14.4,0-21.7,0
	c-0.5,0-1,0-1.4,0c-0.5,0-0.7,0.3-0.7,0.8c0,0.4,0,0.8,0,1.2c0,10.1,0,20.2,0,30.3c0,2-0.2,1.8,1.9,1.8c12.4,0,24.9,0,37.3,0
	c0.4,0,0.8,0,1.2,0c1-0.1,1.3,0.3,1.3,1.3c-0.1,3,0,6,0,9.1c0,1.6,0,3.3,0,4.9c0,0.8-0.3,1.1-1.1,1.1c-0.4,0-0.8,0-1.2,0
	c-17.8,0-35.6,0-53.4,0c-2.5,0-2.3,0.2-2.3-2.3C490,143.8,490,125.1,490,106.3z M506.7,153.5c1-0.4,1.4-1.4,2.1-2.2
	c-0.7,0.8-1.8,1.2-2.2,2.2c-1.7,1.4-3.3,2.8-4.7,4.5c-2,1.8-3.9,3.6-6,5.8c0.6,0,0.9,0.1,1,0c2-1.7,3.8-3.7,5.6-5.7
	C503.9,156.7,505.4,155.2,506.7,153.5z M500.1,67.3c-2.7,2.6-5.5,5.2-8.2,7.7c-0.6,0.6-1.2,1.1-0.6,2.3c3.2-3.4,6.3-6.7,9.5-10
	c1-0.7,1.7-1.6,2.3-2.7C502,65.4,500.9,66.2,500.1,67.3z M515.2,99.3c-1-0.3-1.7,0.1-2.3,0.7c-1.6,1.6-3.2,3.2-4.8,4.8
	c-5.4,5.3-10.7,10.6-16.1,15.9c-0.8,0.8-1.4,1.5-1,2.3C499.1,115.3,507.1,107.4,515.2,99.3z M535.4,49.1c-1.5-0.5-2.3-0.1-3,0.7
	c-2.6,2.7-5.3,5.3-8,8c-1.6,1.6-3.2,3.3-5,5.1c1,0.3,1.7,0.3,2.3-0.3c0.6-0.6,1.2-1.2,1.8-1.7C527.3,57,531.2,53.2,535.4,49.1z
	 M510.9,163.6c1.3,0.5,2.1,0,2.8-0.8c3.8-4,7.7-8,11.6-12c0.3-0.3,0.8-0.5,0.7-1.1c-0.3-0.2-0.6-0.2-0.8,0
	C520.4,154.3,515.7,158.9,510.9,163.6z M491.3,62.2c4.4-4.5,8.7-8.8,13-13.2c-1.3-0.5-2,0.1-2.6,0.7c-3.2,3.2-6.4,6.4-9.7,9.5
	C491.2,60.1,490.9,60.8,491.3,62.2z M547,51c-4,4-8,8-11.9,12c0.8,0.2,1.6,0.1,2.3-0.6c3-3,6-6.1,9-9.1C547,52.6,547.3,51.9,547,51z
	 M491.2,153.9c0.1,0,0.3,0,0.4-0.1c4.4-4.3,8.7-8.5,13.1-12.8c0.6-0.6,0.7-1.2,0.2-2.1c-4.5,4.6-8.9,9.1-13.3,13.6
	C491.2,152.8,490.9,153.3,491.2,153.9z M515.9,113.6c1.7-0.6,2.6-2.2,3.8-3.3c1.3-1.1,2.5-2.4,3.7-3.6c1.3-1.2,2.6-2.5,3.8-3.7
	c1.1-1.2,2.5-2.2,3.4-3.7c-1.2-0.4-1.8,0.3-2.4,1c-3.9,4-7.9,8-11.8,12.1C516.1,112.6,515.7,112.9,515.9,113.6z M546.7,159.3
	c-1.4,1.5-2.8,3-4.1,4.4C543.6,163.4,545.1,162.1,546.7,159.3z M505.1,93.4c-1,0.6-1.8,1.3-2.2,2.4
	C503.8,95.2,504.7,94.6,505.1,93.4z M492.3,137c-0.4,0.4-1.3,0.5-1.1,1.6C491.7,138,492.2,137.7,492.3,137z M492.1,106.4
	c-0.2,0.1-0.3,0.1-0.4,0.1c-0.3,0.2-0.7,0.3-0.7,0.8c0,0.1,0.2,0.2,0.2,0.2c0.4-0.1,0.6-0.5,0.8-0.8
	C492.1,106.7,492.1,106.6,492.1,106.4z"/>
<path class="st0" d="M413.3,164.9c-2.1,0-4.2,0-6.3,0c-2.9,0-5.8,0-8.7,0c-0.9,0-1.3-0.3-1.5-1.2c-0.7-4.5-1.6-8.9-2.4-13.4
	c-0.3-1.7-0.3-1.7-2.1-1.7c-5.3,0-10.6,0-15.9,0c-1.6,0-1.6,0-1.8,1.5c-0.8,4.5-1.6,9-2.4,13.6c-0.1,0.6-0.1,1.2-1,1.2
	c-5.1,0-10.3,0-15.3,0c-0.4-0.5-0.3-1-0.2-1.3c3.1-17.4,6.2-34.8,9.3-52.3c2.8-15.9,5.6-31.9,8.4-47.8c0.8-4.7,1.7-9.5,2.5-14.2
	c0.3-1.5,0.3-1.5,1.9-1.5c4.5,0,8.9,0,13.4,0c1.6,0,1.6,0,1.9,1.7c1,5.6,2,11.2,3,16.8c2.4,13.7,4.9,27.4,7.3,41.1
	c2.3,12.8,4.5,25.7,6.8,38.5c1,5.7,2,11.5,3.1,17.2C413.4,163.7,413.6,164.2,413.3,164.9z M397.9,104.4c1.2-0.9,2.2-2.1,3-3.4
	c-1.2,0.8-2.2,1.7-3.1,2.8c-0.8,0.8-1.7,1.7-2.5,2.5c-2,1.9-4,3.8-5.9,5.6c-0.3,0.3-0.8,0.6-0.2,1.4c2.1-2.1,4.2-4.2,6.2-6.4
	C396.4,106.3,397.1,105.3,397.9,104.4z M368.6,148.7c-0.5,0.2-0.8,0.6-1,1.2c0.5-0.2,0.9-0.4,1-0.9c1.3-0.7,2.2-1.8,3.2-2.8
	c4.4-4,8.8-8.1,13-12.5c-1.2-0.3-1.9-0.1-2.5,0.6c-3.6,3.8-7.4,7.5-10.9,11.5C370.3,146.5,369.4,147.5,368.6,148.7z M387.1,145.2
	c-0.9,0.7-1.9,1.3-2.5,2.3c0.8,0.3,1.4,0.1,1.9-0.5c0.4-0.5,0.8-1,1.1-1.4c0.4-0.3,0.7-0.5,0.6-1.1
	C387.7,144.5,387.4,144.8,387.1,145.2z M387.9,83.4c1.8-1.2,3-3.1,4.5-4.6c-1.6,1.5-3.5,2.8-4.8,4.6c-1.9,1.7-3.8,3.4-5.5,5.3
	c-4.6,4.5-9.2,9-13.8,13.4c-0.5,0.5-1,1.1-0.7,2.3c5.2-5.3,10.2-10.5,15.2-15.6C384.6,87.1,386.4,85.4,387.9,83.4z M377.6,62.4
	c-1.2,1.3-3.1,2.1-3.4,4.2c1.6-1,2.7-2.5,3.9-3.8c0.9-0.7,1.6-1.6,2.1-2.6C379.2,60.8,378.3,61.4,377.6,62.4z M396.6,136.7
	c1.4-1,2.8-2.2,4-3.5c1.6-1.5,3.1-3.1,4.6-4.7c0.5-0.5,1.1-1.1,0.2-1.9c-3.4,3-6.6,6.1-9.3,9.6c-0.4,0.3-0.8,0.6-0.8,1.3
	C396,137.4,396.4,137.1,396.6,136.7z M384.8,95.7c-0.1,0-0.3,0-0.4,0c-1.4,7.9-2.8,15.8-4.2,23.7c-0.7,3.8-1.3,7.6-2,11.3
	c-0.3,1.7-0.3,1.7,1.5,1.7c2.3,0,4.5,0,6.8,0c1.6,0,3.1,0.2,4.9-0.2C389.1,120,387,107.8,384.8,95.7z M394.1,61.4
	c-0.4-0.1-0.5,0.2-0.7,0.4c-7.2,7-14.3,14.1-21.5,21c-0.9,0.9-1.1,1.8-1.2,3c0.7-0.2,1.1-0.7,1.5-1.2c4.7-4.8,9.5-9.6,14.2-14.4
	c2.4-2.4,4.7-4.8,7-7.2C393.8,62.7,394.7,62.3,394.1,61.4z M364.1,123.1c0.3-0.1,0.4-0.1,0.5-0.2c5.4-5.3,10.8-10.7,16.2-16.1
	c0.8-0.8,0.9-1.7,0.8-2.8c-0.3,0.1-0.4,0.2-0.5,0.3c-5.4,5.4-10.7,10.8-16.1,16.2C364.4,121.3,364.2,122.1,364.1,123.1z
	 M360.8,142.3c1.3-1.3,2.3-2.4,3.3-3.4c4.4-4.4,8.7-8.8,13.1-13.2c0.7-0.7,1.5-1.4,1.1-2.6c-0.5,0.1-0.7,0.4-1,0.7
	c-5,5-10.1,10-15.1,14.9C361.3,139.6,360.8,140.5,360.8,142.3z M396.1,152.8c0.7-0.1,1-0.6,1.3-1c3.3-3.3,6.6-6.6,9.8-10
	c0.6-0.6,1.4-1.2,0.5-2.3c-3.9,3.8-7.7,7.6-11.5,11.3C395.6,151.5,395.7,152.1,396.1,152.8z M391.6,127c4.1-4.2,8-8.2,11.9-12.3
	c0.3-0.3,0.3-0.7-0.1-1.1c-0.2,0.1-0.4,0.1-0.5,0.2c-3.7,3.6-7.4,7.2-11.1,10.7C391.1,125.2,391.1,125.8,391.6,127z M387,100.7
	c1-1,2-2,2.9-2.9c2.8-2.8,5.5-5.5,8.2-8.3c0.6-0.6,1.4-1.2,0.4-2.3c-3.8,3.7-7.5,7.5-11.3,11.1C386.5,99,386.4,99.7,387,100.7z"/>
<path class="st0" d="M41.8,76.8c-0.1-0.8-0.2-1.4-0.3-2c-1.2-6.8-7-11.3-13.7-10.7c-6.5,0.6-11.6,6.1-11.6,12.8
	c0,19.6,0,39.3,0,58.9c0,6.6,5.1,12.2,11.4,12.7c6.8,0.6,12.6-3.8,13.8-10.6c0.1-0.7,0.2-1.3,0.4-2.1c5,0,10,0,15.1,0
	c0.8,0,1.1,0.3,1,1.1c-0.1,2.4-0.5,4.8-1.1,7.1c-3.3,11.4-13.6,19.7-25.3,20.7c-16.3,1.4-30.7-11-31.5-27.3c0-0.8-0.1-1.6-0.1-2.5
	c0-19.1,0-38.2,0-57.3c0-8.1,2.5-15.3,8.3-21.1c8.4-8.4,18.5-10.9,29.8-7.3c11,3.5,17.5,11.4,19.7,22.8c0.2,1.2,0.2,2.3,0.4,3.5
	c0.1,1-0.3,1.3-1.3,1.3c-3.4,0-6.7,0-10.1,0C44.9,76.8,43.3,76.8,41.8,76.8z M42.1,140.3c1.4-0.7,2.4-1.9,3.5-3.2
	C43.1,136.9,42.4,137.6,42.1,140.3c0,0.1,0,0.1,0,0.1C42.1,140.4,42.1,140.3,42.1,140.3z M27.6,153.9c-0.7,0.3-1.1,0.9-1.3,1.6
	c0.7-0.4,1.4-0.8,1.8-1.5c0.9-0.8,1.7-1.5,2.6-2.3c0.8-0.8,1.6-1.6,2.5-2.4c-0.1-0.1-0.2-0.2-0.3-0.3
	C30.5,150.1,29.2,152.2,27.6,153.9z M9.1,64.5c-2.3,2.2-4.7,4.5-7,6.7c-0.6,0.5-1.2,1.1-0.6,2.1c2.7-2.8,5.4-5.6,8-8.4
	c1.6-1.5,3.2-3.1,4.4-4.9C12.2,61.3,10.5,62.7,9.1,64.5z M46.5,151c0.2-0.1,0.3-0.4,0.2-0.4c-0.4-0.2-0.7,0.1-0.9,0.5
	c-4.2,3.3-7.9,6.9-11.2,11.1c-0.4,0.3-0.8,0.6-0.8,1.2c0.7,0.1,1-0.3,1.3-0.7C39.4,159.2,43.1,155.3,46.5,151z M1,104.1
	c0.2-0.1,0.4-0.1,0.4-0.2c4.3-4.2,8.7-8.4,13-12.5c0.7-0.7,0.8-1.4,0.5-2.6c-4.8,4.9-9.5,9.5-14,14.4C0.8,103.4,0.8,103.7,1,104.1z
	 M39.3,51.1c-1-1.2-1.7-0.4-2.4,0.3c-3.5,3.6-7,7.1-10.5,10.7c-0.3,0.3-0.8,0.5-0.7,1.2c0.7,0,1.3-0.1,1.9-0.6
	C31.5,58.8,35.5,55.1,39.3,51.1z M1.1,119.7c4.6-4.5,9-8.8,13.5-13.2c0.6-0.6,0.7-1.2,0.4-2c-0.2,0-0.4,0-0.5,0.1
	c-4.4,4.5-8.8,9-13.2,13.5C1,118.5,0.7,118.9,1.1,119.7z M1,135.2c0.7-0.2,0.9-0.6,1.2-0.9c2.8-2.8,5.5-5.5,8.3-8.3
	c1.3-1.3,2.6-2.6,3.9-3.9c0.6-0.6,1.1-1.1,0.4-2.1c-4.5,4.4-8.9,8.8-13.3,13.2C0.9,133.7,0.7,134.4,1,135.2z M10.5,156.8
	c0.2-0.1,0.4-0.3,0.7-0.6c2.8-2.9,5.7-5.7,8.5-8.6c0.4-0.4,0.9-0.7,0.2-1.3c-0.7-0.6-1,0-1.3,0.4c-1.9,1.8-3.7,3.6-5.5,5.5
	c-1.1,1.1-2.1,2.1-3.2,3.2c-0.2,0.2-0.4,0.4-0.3,0.7C9.8,156.4,10,156.6,10.5,156.8z M3.2,147.3c0.1,0.1,0.2,0.3,0.3,0.4
	c0.1,0,0.3,0,0.4-0.1c3.6-3.5,7.2-7,10.8-10.4c0.5-0.5,0.7-1.1,0.2-1.9C10.9,139.3,6.9,143.2,3.2,147.3z M43.7,75.5
	c1.1,0.4,1.7,0.1,2.2-0.5c2.7-2.8,5.4-5.5,8-8.3c0.3-0.3,0.8-0.7,0.2-1.4C50.8,68.7,47.4,72,43.7,75.5z M53.7,143.5
	c2.8-1.7,2.8-1.7,2.7-3.6C55.3,141.1,54.3,142.2,53.7,143.5z M38.1,66.8c0.8-0.5,1.2-0.9,1.3-1.5C39.1,65.7,38.3,65.8,38.1,66.8z
	 M14.8,59l0-0.1l0.2,0.1L14.8,59z"/>
<path class="st3" d="M415.3,48.1c0.6-0.3,1.3-0.2,1.9-0.2c18,0,36,0,54.1,0c0.3,0,0.7,0,1,0c0.8-0.1,1.1,0.3,1,1.1
	c0,3.1,0,6.2,0,9.3c0,1.5-0.1,3,0,4.5c0.1,1.1-0.4,1.4-1.4,1.4c-5.8,0-11.6,0-17.3,0c-0.5,0-1,0-1.4,0c-0.6,0-0.8,0.3-0.8,0.9
	c0,0.5,0,1.1,0,1.6c0,31.9,0,63.9,0,95.8c0,2.7,0.4,2.4-2.4,2.5c-4.1,0-8.3,0-12.4,0c-1.4,0-1.4,0-1.5-1.5c0-0.5,0-1,0-1.4
	c0-31.8,0-63.6,0-95.4c0-2.5,0-2.5-2.6-2.5c-5.6,0-11.3,0-16.9,0c-1.4,0-1.4,0-1.4-1.5c0-4.6,0-9.2,0-13.8
	C415.2,48.5,415.3,48.3,415.3,48.1z M441.6,142.6c0.8-0.5,1.5-1.1,2.1-1.8c2.5-2,4.7-4.3,7.1-6.5c0.7-0.7,0.9-1.4,0.5-2.6
	c-2.8,2.9-5.6,5.6-8,8.6c-0.7,0.4-1.1,1.1-1.6,1.8c-0.4,0.2-0.8,0.5-0.6,1C441,143,441.5,142.9,441.6,142.6z M446.5,76.1
	c1.7-1.6,3.5-3,4.9-4.9c0-0.1-0.1-0.2-0.2-0.6c-1.9,1.7-3.6,3.6-5.3,5.4c-1.3,0.9-2.2,2.2-3.2,3.4C444.2,78.5,445.5,77.5,446.5,76.1
	z M458.8,49c-1.1-0.3-1.8-0.1-2.5,0.6c-6.1,6.1-12.2,12.1-18.3,18.2c-0.8,0.8-1.3,1.5-0.9,2.4C444.3,63.2,451.5,56.1,458.8,49z
	 M437.2,132.1c4.7-4.6,9.1-9,13.6-13.4c0.6-0.6,0.6-1.3,0.4-2c-0.4,0-0.6,0.2-0.9,0.5c-4.2,4.2-8.4,8.3-12.6,12.5
	C437.1,130.3,436.9,131,437.2,132.1z M451.3,147.2c-0.3,0.2-0.5,0.2-0.6,0.4c-4.3,4.3-8.5,8.5-12.8,12.8c-0.7,0.7-0.9,1.4-0.5,2.4
	c0.2-0.1,0.4-0.2,0.6-0.3c4.3-4.3,8.5-8.5,12.8-12.8C451.4,149,451.5,148.3,451.3,147.2z M451.3,85.8c-0.2,0-0.3,0-0.4,0.1
	c-4.4,4.4-8.8,8.8-13.2,13.2c-0.5,0.5-0.7,1.1-0.5,1.9c0.2-0.1,0.4-0.1,0.5-0.2c4.3-4.3,8.7-8.6,13-12.8
	C451.4,87.3,451.6,86.6,451.3,85.8z M472,49.5c-4.4,4.5-8.8,8.8-13.1,13.4c0.9,0.4,1.3,0,1.7-0.4c3.7-3.6,7.3-7.2,11-10.8
	C472.2,51,472.3,50.4,472,49.5z M445.4,108c-0.1-0.1-0.2-0.3-0.3-0.4c-2.6,2.5-5.2,5.1-7.9,7.6c-0.3,0.3-0.2,0.6,0.1,1.2
	C440.1,113.6,442.7,110.8,445.4,108z M428,62.9c2.5,0.2,2.9-2.1,4.1-3.5C430.5,60.3,429.1,61.5,428,62.9z M442.7,48.8
	c-0.9,0.3-1.3,0.7-1.5,1.5C442,50,442.3,49.6,442.7,48.8z"/>
<path class="st4" d="M315.3,112.1c-0.3,1.8-0.9,2.9-1.9,4c-7.3,7.4-14.7,14.6-22.2,21.7c-0.5,0.5-1.1,1-1.6,1.4
	c-0.3-0.3-0.3-0.6-0.2-0.7C297.6,129.5,306.2,120.9,315.3,112.1z"/>
<path class="st5" d="M257.6,94.6c-0.6-1.2-0.1-1.9,0.6-2.5c2.3-2.3,4.6-4.6,6.9-6.8c4.6-4.6,9.3-9.2,14-13.7
	c0.3-0.3,0.6-0.6,0.9-0.8c0.1-0.1,0.3,0,0.4,0c0.2,0.1,0.3,0.4,0.2,0.5c-0.1,0.3-0.4,0.6-0.6,0.8C272.6,79.5,265.2,87,257.6,94.6z"
	/>
<path class="st6" d="M276.3,59c0.6,0.9,0.1,1.5-0.5,2.1c-4.6,4.5-9.2,9.1-13.8,13.6c-1.4,1.4-2.8,2.8-4.3,4.2
	c-0.6-0.9,0-1.4,0.5-1.9c1.6-1.6,3.1-3.3,4.7-4.9c4.1-4.2,8.3-8.4,12.4-12.6C275.6,59.3,275.8,59,276.3,59z"/>
<path class="st4" d="M271.4,109.5c0.2,1.2,0.3,1.9-0.4,2.5c-4.5,4.4-8.9,8.9-13.5,13.5c-0.3-1-0.3-1.7,0.3-2.4
	C262.3,118.7,266.7,114.2,271.4,109.5z"/>
<path class="st4" d="M272.7,48.9c-5.2,5.1-10.1,9.9-15.1,14.7c-0.5-0.9-0.3-1.4,0.2-1.8c4-4.1,8.1-8.2,12.1-12.4
	C270.7,48.7,271.4,48.8,272.7,48.9z"/>
<path class="st4" d="M323.7,151.4c-0.2-0.9-0.1-1.6,0.5-2.2c4.3-4.3,8.7-8.6,13-12.9c0.1-0.1,0.4-0.2,0.6-0.3
	c0.2,0.7,0.2,1.3-0.4,1.9c-4.4,4.4-8.8,8.8-13.2,13.2C324.2,151.3,324,151.3,323.7,151.4z"/>
<path class="st5" d="M323.9,135.8c-0.3-0.6-0.3-0.9-0.1-1.1c4.6-4.7,9.2-9.4,13.8-14.2c0.4,0.9,0.4,1.5-0.2,2
	C333,126.9,328.5,131.3,323.9,135.8z"/>
<path class="st5" d="M257.6,156.1c-0.5-0.9-0.3-1.6,0.3-2.2c4.4-4.3,8.9-8.6,13.4-13c0.5,0.9-0.1,1.2-0.5,1.6
	c-3.6,3.7-7.2,7.4-10.8,11.1C259.3,154.5,258.5,155.3,257.6,156.1z"/>
<path class="st5" d="M257.7,109.5c-0.3-0.3-0.4-0.6-0.3-0.7c4.4-4.9,9.2-9.5,13.9-14.3c0.6,1.2,0,1.8-0.6,2.4
	c-3.5,3.4-7,6.8-10.4,10.2C259.4,107.9,258.5,108.7,257.7,109.5z"/>
<path class="st5" d="M284.2,81.8c0.6,0.7,0.5,1.3-0.2,1.9c-3.2,3.1-6.3,6.2-9.4,9.2c-0.3,0.3-0.7,1.1-1.3,0.5
	c-0.5-0.5-0.1-1,0.3-1.4C277.2,88.6,280.7,85.3,284.2,81.8z"/>
<path class="st4" d="M307.9,104.5c2.7-3.5,5.9-6.7,9.3-9.6c0.7-0.6,1.2-1.5,2.2-1.7c0,0.2,0,0.4,0.1,0.6c-3.2,4.2-6.9,7.8-10.9,11
	C308.3,104.8,308,104.9,307.9,104.5z"/>
<path class="st7" d="M320.8,77.2c-4.1,4.3-8.2,8.6-12.2,12.9c-0.1-1.4,0.3-2.5,1.3-3.4c3.5-3.3,7-6.6,10.5-9.9
	C320.5,76.8,320.7,76.9,320.8,77.2z"/>
<path class="st6" d="M277.5,105.2c-0.3-0.6-0.4-1.1,0.1-1.7c3.4-3.3,6.8-6.7,10.3-10.1c0.1-0.1,0.3,0,0.4-0.1c0.4,0.5,0.4,1-0.1,1.4
	C284.6,98.2,281.1,101.6,277.5,105.2z"/>
<path class="st4" d="M287.1,125.5c2.6-3.5,5.7-6.6,8.9-9.5c0.9,0.8,0.5,1.4-0.1,2c-2.6,2.7-5.3,5.4-8.3,7.6
	C287.4,125.6,287.3,125.5,287.1,125.5z"/>
<path class="st5" d="M334.7,155.6c-2.1,2.6-4.5,4.9-6.8,7.4c-0.8,0.8-1.5,1.1-2.8,0.7c3-3,6-5.9,9.1-8.5
	C334.5,155.2,334.7,155.4,334.7,155.6z"/>
<path class="st5" d="M286.8,110.1c1.7-1.9,3.4-3.7,5.1-5.6c0.9,0.6,0.8,1.1,0.2,1.7c-1.4,1.3-2.8,2.6-4.2,3.9
	C287.5,110.1,287.1,110.8,286.8,110.1z"/>
<path class="st7" d="M330.4,82.2c2.4-2.6,4.8-5.2,7.3-7.8c0.6,1,0.2,1.5-0.4,2.1c-2.1,1.9-4.2,3.9-6.3,5.8
	C330.8,82.3,330.6,82.2,330.4,82.2z"/>
<path class="st7" d="M329.5,99.1c-1.7,2.1-3.7,4-5.7,6.1c0-1.8,0.6-2.4,5.1-6.2C329.1,99.1,329.3,99.1,329.5,99.1z"/>
<path class="st7" d="M286.8,110.1c0.3,0.7,0.7,0,1.1,0.1c-2,2-4,4-6.3,5.7C283,113.7,284.9,111.9,286.8,110.1z"/>
<path class="st7" d="M328.9,52.9c1-1.2,2.1-2.3,3.1-3.5c0.4-0.5,0.9-0.8,1.9-0.4c-1.7,1.6-3.2,3.1-5,4.4
	C328.9,53.3,328.9,53.1,328.9,52.9z"/>
<path class="st8" d="M320.8,77.2c-0.1-0.2-0.3-0.4-0.5-0.4c0.8-1,1.8-1.8,2.9-2.5C322.5,75.4,321.8,76.5,320.8,77.2z"/>
<path class="st9" d="M334.7,155.6c-0.1-0.2-0.2-0.4-0.5-0.5c0.5-0.7,1.2-1.2,2-1.6C336,154.4,335.5,155.1,334.7,155.6z"/>
<path class="st7" d="M266.9,161.7c-0.9,0.7-1.2,2.1-3.1,2.1c1-0.9,1.8-1.5,2.5-2.1C266.4,161.7,266.6,161.7,266.9,161.7z"/>
<path class="st8" d="M330.4,82.2c0.2,0,0.4,0,0.5,0.1c-0.5,0.8-1.2,1.3-2,1.7C329.3,83.3,329.7,82.7,330.4,82.2z"/>
<path class="st9" d="M328.9,52.9c0,0.2,0,0.4,0,0.5c-0.4,0.7-1,1-1.6,1.4C327.7,54.1,328.1,53.4,328.9,52.9z"/>
<path class="st8" d="M330.2,97.8c0.5-0.8,1.3-1.3,2.1-1.8c-0.3,0.7-0.8,1.4-1.5,1.8C330.5,97.9,330.4,97.8,330.2,97.8z"/>
<path class="st9" d="M307.9,104.5c0.1,0.3,0.4,0.3,0.7,0.3c-0.4,0.5-0.9,0.8-1.7,1.3C307.1,105.3,307.5,104.9,307.9,104.5z"/>
<path class="st9" d="M330.2,97.8c0.2,0,0.4,0,0.6,0c-0.4,0.5-0.7,1-1.3,1.3c-0.2,0-0.4,0-0.6,0C329.2,98.5,329.7,98.2,330.2,97.8z"
	/>
<path class="st8" d="M266.9,161.7c-0.2,0-0.4,0-0.7,0c0.3-0.5,0.7-0.9,1.4-1.1C267.6,161.2,267.2,161.5,266.9,161.7z"/>
<path class="st9" d="M319.5,93.8c0-0.2,0-0.4-0.1-0.6c0.1-0.3,0.6-0.6,0.7-0.5C320.3,93.3,319.9,93.6,319.5,93.8z"/>
<path class="st8" d="M287.1,125.5c0.2,0,0.4,0.1,0.5,0.1c-0.1,0.1-0.2,0.3-0.4,0.4c-0.2,0.1-0.5,0.3-0.6,0
	C286.6,125.9,286.8,125.6,287.1,125.5z"/>
<path class="st6" d="M200.5,112c0.6,1.1-0.1,1.8-0.8,2.5c-7.1,7.2-14.2,14.4-21.5,21.3c-0.6,0.6-1.1,1.3-2,1.7
	c-0.6-1,0.2-1.3,0.6-1.8c2.6-2.7,5.1-5.4,7.7-8c5-5.1,10.1-10.1,15.2-15.1C199.9,112.3,200.1,112,200.5,112z"/>
<path class="st4" d="M167.1,68.8c0.5,1-0.4,1.4-0.9,1.9c-2.9,3-5.8,6-8.8,9c-3.9,3.9-7.7,7.8-11.6,11.7c-0.2,0.2-0.5,0.4-0.8,0.7
	c-0.6-1.1-0.1-1.7,0.6-2.4c3-3,6-6,9.1-9c3.7-3.7,7.4-7.3,11.2-10.9C166.1,69.4,166.4,68.9,167.1,68.8z"/>
<path class="st6" d="M145,76.5c-0.7-1.1,0-1.6,0.5-2.2c2.5-2.5,5-5.1,7.5-7.6c3.2-3.2,6.4-6.4,9.7-9.6c1.1,0.9,0.4,1.5-0.3,2.2
	c-4.3,4.2-8.5,8.4-12.8,12.6C148.2,73.4,146.6,75,145,76.5z"/>
<path class="st4" d="M158.8,107.5c0.5,1,0,1.7-0.7,2.5c-3.7,3.7-7.3,7.4-11,11c-0.7,0.7-1.4,1.3-2.2,2.1c-0.3-1-0.3-1.8,0.4-2.4
	c4.4-4.4,8.9-8.8,13.3-13.1C158.6,107.4,158.7,107.5,158.8,107.5z"/>
<path class="st4" d="M186.7,65.7c-0.4-0.9-0.3-1.6,0.4-2.3c4.4-4.3,8.8-8.6,13.2-13c0.9,1.1,0.1,1.6-0.5,2.2
	c-3.7,3.7-7.4,7.5-11.2,11.2C188,64.5,187.5,65.3,186.7,65.7z"/>
<path class="st4" d="M186.7,96.7c-0.3-1.2-0.2-2,0.5-2.7c4.2-4,8.4-8.1,12.6-12.1c0.2-0.2,0.4-0.4,0.7-0.4c0.5,0.9-0.3,1.2-0.7,1.7
	c-2.8,3-5.7,5.9-8.6,8.9C189.8,93.6,188.3,95.1,186.7,96.7z"/>
<path class="st4" d="M158.7,91.8c0.3,1.1,0.2,1.7-0.3,2.3c-4.4,4.3-8.9,8.7-13.4,13.2c-0.6-1.2,0.3-1.7,0.8-2.2
	c2.9-3,5.8-5.9,8.6-8.8C155.8,94.8,157.2,93.4,158.7,91.8z"/>
<path class="st4" d="M157.2,48.9c-4.1,4.2-8,8.2-12.2,12.5c-0.5-1.1-0.3-1.7,0.3-2.4c3.1-3.2,6.3-6.3,9.4-9.5
	C155.4,48.8,156.2,48.7,157.2,48.9z"/>
<path class="st5" d="M170.6,79.7c1.1,1,0.7,1.6,0,2.3c-2.2,2.1-4.3,4.2-6.4,6.4c-1.2,1.3-2.4,2.6-3.6,3.9c-1-1.1-0.7-1.7,0-2.3
	c2.4-2.4,4.7-4.7,7.1-7.1C168.6,81.8,169.6,80.8,170.6,79.7z"/>
<path class="st5" d="M178.7,102.5c0.5,0.8,0.8,1.4,0.2,1.9c-3.5,3.4-7.1,6.8-10.6,10.2c-0.4-0.4-0.4-0.8-0.2-1.1
	C171.6,110,175.1,106.3,178.7,102.5z"/>
<path class="st4" d="M182.5,115.6c-2.7,3.7-5.9,6.8-9.3,9.8c-0.2,0.2-0.4,0.3-0.7,0.5c-0.1,0.1-0.3,0-0.4,0
	c-0.1-0.1-0.3-0.4-0.2-0.5c0.1-0.3,0.2-0.5,0.4-0.7c3.1-3.5,6.3-6.9,10.1-9.5C182.4,115.3,182.4,115.5,182.5,115.6z"/>
<path class="st6" d="M164.3,103.3c-0.7-0.7-0.5-1.2,0-1.7c3.3-3.2,6.5-6.4,9.8-9.7c0.2-0.2,0.5-0.6,0.8-0.3c0.3,0.3,0.4,0.7,0,1.1
	c-0.6,0.6-1.1,1.2-1.7,1.8C170.3,97.4,167.4,100.3,164.3,103.3z"/>
<path class="st4" d="M191.1,106.2c2.7-3.5,5.9-6.6,9.3-9.6c0.6,1.1,0,1.7-0.6,2.3c-2.5,2.7-5.1,5.3-8,7.6
	C191.5,106.5,191.2,106.5,191.1,106.2z"/>
<path class="st5" d="M154.9,143.3c-3.3,3.4-6.5,6.8-9.8,10.3c-0.7-1.1-0.2-1.7,0.5-2.2c3-2.8,6-5.7,8.9-8.5
	C154.6,143,154.7,143.1,154.9,143.3z"/>
<path class="st6" d="M200.6,158.4c0.3,0.7,0,1.5-0.8,2.2c-0.8,0.7-1.5,1.4-2.1,2.2c-0.7,0.9-1.6,1.3-2.4,1
	C197,162.1,198.8,160.3,200.6,158.4z"/>
<path class="st7" d="M192.1,75.2c-1.8,1.8-3.5,3.7-5.4,5.6c-0.1-0.4-0.3-0.6-0.2-0.6c1.5-2.1,3.6-3.7,5.4-5.5
	C192,74.9,192,75,192.1,75.2z"/>
<path class="st9" d="M154.9,143.3c-0.2-0.2-0.3-0.3-0.5-0.5c1.3-1.5,2.8-2.7,4.4-3.9C157.7,140.6,156.4,142,154.9,143.3z"/>
<path class="st8" d="M192.1,75.2c-0.1-0.2-0.1-0.3-0.2-0.5c1-1.5,2.6-2.5,3.7-3.8c0.2,0,0.5,0,0.7,0C194.9,72.3,193.7,74,192.1,75.2
	z"/>
<path class="st8" d="M198.5,145.8c-0.7,1-1.7,1.7-2.5,2.6c-0.2,0-0.5,0-0.7,0c1-0.8,1.6-1.9,2.7-2.6
	C198.2,145.7,198.3,145.7,198.5,145.8z"/>
<path class="st9" d="M198.5,145.8c-0.2,0-0.3-0.1-0.5-0.1c0.8-0.8,1.6-1.7,2.4-2.5C200.3,144.5,199.3,145,198.5,145.8z"/>
<path class="st10" d="M196.4,70.9c-0.2,0-0.5,0-0.7,0c0.6-0.7,1.1-1.4,2.3-2C197.6,70,196.9,70.4,196.4,70.9z"/>
<path class="st10" d="M195.3,148.3c0.2,0,0.5,0,0.7,0c-0.6,0.7-1.2,1.4-2.1,1.8C194.1,149.3,194.8,148.9,195.3,148.3z"/>
<path class="st9" d="M191.1,106.2c0.1,0.4,0.4,0.3,0.7,0.3c-0.4,0.5-0.9,0.9-1.7,1.2C190.2,106.9,190.7,106.5,191.1,106.2z"/>
<path class="st9" d="M150.5,162.6c-0.3,0.4-0.4,1.2-1.4,1.1C149.4,163.1,149.9,162.9,150.5,162.6z"/>
<path class="st9" d="M182.5,115.6c0-0.2,0-0.3,0-0.5c0.1-0.3,0.3-0.5,0.5-0.2C183.1,115.2,182.8,115.5,182.5,115.6z"/>
<path class="st4" d="M621.8,138.2c0.2,1.1-0.1,1.7-0.7,2.4c-7.4,7.6-14.9,15-22.6,22.3c-0.4,0.4-0.8,0.9-1.6,0.9
	C597.6,161.9,617.5,141.5,621.8,138.2z"/>
<path class="st4" d="M608.1,76.5c-0.4-0.9-0.2-1.5,0.3-2.1c4.3-4.5,8.7-8.9,13.4-13.1c0.6,1.2-0.3,1.6-0.8,2.2
	c-3.2,3.5-6.5,6.9-9.9,10.1C610.1,74.6,609.1,75.5,608.1,76.5z"/>
<path class="st5" d="M621.7,76.1c0.4,1.3,0.4,2-0.3,2.6c-4.5,4.4-8.9,8.7-13.4,13.1c-0.5-0.8-0.3-1.5,0.4-2.2
	C612.8,85.2,617.1,80.8,621.7,76.1z"/>
<path class="st5" d="M580.2,87.6c0.2,0.7,0.1,1.3-0.5,1.9c-4.4,4.3-8.7,8.6-13,12.9c-0.1,0.1-0.2,0.1-0.4,0.1
	c-0.4-0.7-0.1-1.3,0.4-1.8C571.2,96.4,575.7,92,580.2,87.6z"/>
<path class="st5" d="M596.5,149.6c-2.6,2.7-5,5.1-7.4,7.5c-1.4,1.4-2.8,2.8-4.2,4.2c-0.7,0.6-0.7,0.6-2,0.1c1.6-1.6,3.1-3.1,4.7-4.6
	c2.1-2.1,4.2-4.1,6.3-6.2C594.5,149.8,595.2,149.4,596.5,149.6z"/>
<path class="st4" d="M580.2,133.6c0.3,0.9,0.2,1.7-0.6,2.4c-3.7,3.6-7.3,7.2-11,10.9c-0.9-0.7-0.6-1.3,0-1.9
	c1.4-1.4,2.8-2.9,4.2-4.3c2.1-2.1,4.3-4.3,6.4-6.4C579.4,134,579.7,133.6,580.2,133.6z"/>
<path class="st4" d="M608.1,61.2c-0.5-1.3-0.1-2,0.6-2.7c3-2.9,6-5.9,8.9-8.8c0.7-0.7,1.4-1.1,2.6-0.7
	C616.2,53.1,612.2,57.1,608.1,61.2z"/>
<path class="st4" d="M580.1,118.1c0.3,0.9,0.2,1.5-0.3,2c-4.4,4.4-8.7,8.9-13.1,13.3c-0.9-1-0.5-1.5,0.1-2.1
	C571.2,127.1,575.6,122.7,580.1,118.1z"/>
<path class="st7" d="M577.5,106.6c-3.7,3.8-7.4,7.7-11.1,11.5c-0.6-1-0.1-1.5,0.4-2c3.4-3.2,6.7-6.4,10.1-9.6
	C577.1,106.5,577.3,106.5,577.5,106.6z"/>
<path class="st7" d="M577.4,60.4c-3.6,3.8-7.3,7.6-10.9,11.4c-0.6-0.9-0.1-1.4,0.3-1.9c3.5-3.4,7-6.7,10.5-10.1
	C577.4,60,577.4,60.2,577.4,60.4z"/>
<path class="st5" d="M614.9,99.1c2.2-2.4,4.5-4.8,6.8-7.2c0.7,1,0.1,1.6-0.5,2.2c-1.9,1.8-3.9,3.6-5.8,5.5
	C615.1,99.5,615,99.4,614.9,99.1z"/>
<path class="st7" d="M615.3,130.4c-2.4,2.5-4.8,5-7.3,7.6c-0.5-1,0-1.4,0.5-1.9c2.1-2,4.3-4.1,6.4-6.1
	C615,130.1,615.2,130.2,615.3,130.4z"/>
<path class="st8" d="M618.3,111.4c1.1-1.2,2.3-2.4,3.4-3.6C621.1,109.6,619.6,110.4,618.3,111.4z"/>
<path class="st9" d="M615.3,130.4c-0.1-0.1-0.3-0.2-0.4-0.4c0.8-0.8,1.7-1.7,2.5-2.5c0.2,0,0.5,0,0.7,0
	C617.2,128.5,616.2,129.4,615.3,130.4z"/>
<path class="st9" d="M614.9,99.1c0.1,0.2,0.2,0.4,0.5,0.5c-0.7,1-1.7,1.7-2.6,2.5c-0.2,0-0.4-0.1-0.7-0.1
	C613.1,101,613.8,99.9,614.9,99.1z"/>
<path class="st9" d="M577.5,106.6c-0.2,0-0.4-0.1-0.6-0.1c0.9-1.2,2.1-2.1,3.2-3.2C579.9,104.4,579.7,104.6,577.5,106.6z"/>
<path class="st9" d="M577.4,60.4c0-0.2,0-0.4-0.1-0.5c0.8-1,1.7-1.8,2.8-2.6C579.4,58.6,578.5,59.5,577.4,60.4z"/>
<path class="st8" d="M575.9,153.7c-0.4,0.8-0.8,1.4-1.7,1.6C574.8,154.8,575.4,154.3,575.9,153.7z"/>
<path class="st8" d="M612.1,102c0.2,0,0.5,0.1,0.7,0.1c-0.5,0.7-1.1,1.2-2.1,2C611,102.9,611.6,102.5,612.1,102z"/>
<path class="st8" d="M607.8,122.3c0.1-1.3,0.9-1.4,1.5-1.8C609.1,121.2,608.7,121.8,607.8,122.3z"/>
<path class="st8" d="M618.1,127.5c-0.2,0-0.5,0-0.7,0c0.5-0.7,1-1.2,1.9-1.8C619.3,126.7,618.6,127,618.1,127.5z"/>
<polygon class="st8" points="620.2,124.9 620.2,124.8 620.4,124.9 "/>
<path class="st11" d="M104.7,132.4c-4.6,0-8.9,0-13.4,0c2.2-12.4,4.4-24.7,6.6-37c0.1,0,0.2,0,0.3,0
	C100.3,107.6,102.5,119.8,104.7,132.4z"/>
<path class="st4" d="M84.2,85.8c-0.1-1.1,0.1-2,0.9-2.7c7.2-7.1,14.4-14.1,21.6-21.2c0.2-0.2,0.5-0.5,0.9-0.5
	c0.5,0.9-0.3,1.2-0.8,1.7C103,67,99.2,71,95.3,74.9c-3.3,3.4-6.7,6.7-10,10.1C85,85.3,84.8,85.7,84.2,85.8z"/>
<path class="st5" d="M91.7,123.1c0.2,0.9-0.1,1.5-0.7,2.1c-5.6,5.4-11.2,10.9-16.7,16.2c-0.2-0.7,0.1-1.5,0.9-2.3
	c5.4-5.3,10.8-10.7,16.3-16C91.5,123.1,91.5,123.1,91.7,123.1z"/>
<path class="st6" d="M77.7,123.1c-0.4-1.3,0.2-2,0.9-2.7c2.1-2.1,4.2-4.2,6.2-6.3c2.9-2.9,5.8-5.8,8.7-8.8c0.4-0.4,0.9-0.8,1.5-1.5
	c0,1.4-0.2,2.3-1,3.1c-5.3,5.2-10.5,10.4-15.8,15.6C78.2,122.7,78,122.8,77.7,123.1z"/>
<path class="st4" d="M121.1,139.6c0.9,0.8,0.4,1.4-0.1,2c-1.9,2-3.8,3.9-5.7,5.9c-1.8,1.9-3.6,3.7-5.6,5.7c-0.5-1.1-0.5-1.8,0.3-2.5
	C113.7,147,117.4,143.3,121.1,139.6z"/>
<path class="st4" d="M105,126.8c-0.5-0.7-0.7-1.3,0-2c3.8-3.8,7.7-7.5,11.6-11.3c0.8,0.9,0.2,1.4-0.3,1.8c-2.1,2.2-4.2,4.3-6.3,6.5
	C108.4,123.5,106.7,125.1,105,126.8z"/>
<path class="st4" d="M108.9,137.4c2.8-4,6.3-7.5,10.1-10.8c0.5,0.7,0.4,1.2-0.1,1.7C115.9,131.6,112.6,134.7,108.9,137.4z"/>
<path class="st5" d="M86.3,144c3-3.4,6.2-6.6,9.3-9.9c0.7-0.7,1.4-1,2.7-0.6c-3.9,3.8-7.5,7.5-11.5,11
	C86.6,144.3,86.4,144.2,86.3,144z"/>
<path class="st11" d="M112.1,87.1c0.3,0.9,0.3,1.5-0.2,2c-3.8,3.8-7.6,7.5-11.3,11.3c0,0-0.1,0-0.2,0c-0.7-0.8-0.3-1.4,0.3-2.1
	c2.1-2,4.1-4,6.1-6.1C108.5,90.6,110.2,88.9,112.1,87.1z"/>
<path class="st7" d="M92.5,92.6c-3.8,3.9-7.5,7.7-11.4,11.7c-0.6-1,0-1.5,0.5-2c1.5-1.5,3-3,4.5-4.5c2-1.9,3.9-3.8,5.9-5.7
	C92.3,92.2,92.4,92.3,92.5,92.6z"/>
<path class="st9" d="M92.5,92.6c-0.1-0.2-0.2-0.4-0.5-0.5c2.9-3,5.9-5.8,8.9-8.6c0.1,0.1,0.2,0.2,0.3,0.3
	C98.3,86.7,95.4,89.6,92.5,92.6z"/>
<path class="st7" d="M108.5,107.3c-2,2-3.9,4.1-6.1,6.4c0.2-1.7,1.1-2.7,5.7-6.7C108.3,107,108.4,107.2,108.5,107.3z"/>
<path class="st7" d="M91.3,62.9c-1.1,1.3-2.3,2.6-3.7,3.6c0.4-2.1,2.3-2.9,3.6-4.2C91.2,62.5,91.3,62.7,91.3,62.9z"/>
<path class="st7" d="M101.1,145.1c-0.7,1.3-1.1,2.8-3.1,2.6C98.7,146.4,99.9,145.7,101.1,145.1z"/>
<path class="st9" d="M108.5,107.3c-0.1-0.1-0.3-0.2-0.4-0.4c0.7-1,1.6-1.7,2.5-2.5c0.2,0,0.5,0,0.7,0
	C110.4,105.4,109.6,106.5,108.5,107.3z"/>
<path class="st9" d="M84.7,146.5c-0.7,1-1.7,1.7-2.7,2.4c0.6-1.1,1.4-2,2.3-2.8C84.4,146.3,84.5,146.4,84.7,146.5z"/>
<path class="st9" d="M91.3,62.9c0-0.2-0.1-0.4-0.1-0.6c0.8-1,1.8-1.8,2.9-2.6C93.2,60.9,92.4,62,91.3,62.9z"/>
<path class="st7" d="M84.7,146.5c-0.1-0.1-0.3-0.3-0.4-0.4c0.6-0.7,1.2-1.5,2-2.1c0.2,0.2,0.3,0.3,0.5,0.5
	C86.2,145.3,85.4,145.9,84.7,146.5z"/>
<path class="st8" d="M111.4,104.4c-0.2,0-0.5,0-0.7,0c0.7-1,1.6-1.8,2.7-2.4C112.9,103,112.1,103.7,111.4,104.4z"/>
<polygon class="st8" points="114.2,101.1 114.1,101.3 114.1,101.1 "/>
<path class="st6" d="M515.2,99.3c-8.1,8-16.2,15.9-24.1,23.8c-0.4-0.8,0.2-1.6,1-2.3c5.4-5.3,10.7-10.6,16.1-15.9
	c1.6-1.6,3.2-3.2,4.8-4.8C513.6,99.4,514.2,99,515.2,99.3z"/>
<path class="st4" d="M535.4,49.1c-4.2,4.1-8.1,7.9-12,11.7c-0.6,0.6-1.2,1.1-1.8,1.7c-0.6,0.6-1.3,0.6-2.3,0.3
	c1.8-1.8,3.4-3.5,5-5.1c2.7-2.7,5.4-5.3,8-8C533.1,49,533.9,48.6,535.4,49.1z"/>
<path class="st5" d="M510.9,163.6c4.7-4.7,9.4-9.4,14.3-13.8c0.2-0.2,0.5-0.2,0.8,0c0.1,0.6-0.4,0.8-0.7,1.1c-3.8,4-7.7,8-11.6,12
	C513,163.6,512.2,164.2,510.9,163.6z"/>
<path class="st4" d="M491.3,62.2c-0.4-1.4-0.1-2.1,0.7-2.9c3.3-3.1,6.5-6.3,9.7-9.5c0.7-0.7,1.3-1.2,2.6-0.7
	C499.9,53.4,495.7,57.7,491.3,62.2z"/>
<path class="st5" d="M547,51c0.3,0.9,0,1.6-0.6,2.3c-3,3-6,6-9,9.1c-0.7,0.7-1.4,0.9-2.3,0.6C539,59,543,55.1,547,51z"/>
<path class="st4" d="M491.2,153.9c-0.4-0.6,0-1,0.4-1.5c4.4-4.5,8.8-9,13.3-13.6c0.5,0.9,0.4,1.5-0.2,2.1
	c-4.4,4.3-8.7,8.5-13.1,12.8C491.5,153.8,491.4,153.8,491.2,153.9z"/>
<path class="st5" d="M515.9,113.6c-0.2-0.7,0.2-1,0.5-1.2c3.9-4,7.9-8,11.8-12.1c0.6-0.6,1.2-1.4,2.4-1c-0.9,1.5-2.3,2.5-3.4,3.7
	c-1.2,1.3-2.5,2.5-3.8,3.7c-1.2,1.2-2.4,2.5-3.7,3.6C518.5,111.4,517.6,113,515.9,113.6z"/>
<path class="st7" d="M500.8,67.3c-3.1,3.3-6.3,6.6-9.5,10c-0.6-1.2,0-1.7,0.6-2.3c2.7-2.6,5.5-5.1,8.2-7.7
	C500.4,67.3,500.6,67.3,500.8,67.3z"/>
<path class="st7" d="M502.4,158.1c-1.8,2-3.6,4-5.6,5.7c-0.1,0.1-0.4,0-1,0c2.1-2.1,4-4,6-5.8C502,158,502.2,158.1,502.4,158.1z"/>
<path class="st7" d="M546.7,159.3c-1.6,2.8-3.1,4.1-4.1,4.4C543.9,162.3,545.3,160.8,546.7,159.3z"/>
<path class="st9" d="M502.4,158.1c-0.2,0-0.4,0-0.5,0c1.4-1.7,3-3.1,4.7-4.5c0,0,0.2,0,0.2,0C505.4,155.2,503.9,156.7,502.4,158.1z"
	/>
<path class="st8" d="M500.8,67.3c-0.2,0-0.4,0-0.6,0c0.8-1.1,1.8-1.9,2.9-2.6C502.5,65.7,501.7,66.6,500.8,67.3z"/>
<path class="st8" d="M506.7,153.5c0,0-0.2,0-0.2,0c0.4-1,1.5-1.4,2.2-2.2C508.1,152.1,507.7,153.1,506.7,153.5z"/>
<path class="st8" d="M505.1,93.4c-0.4,1.1-1.3,1.8-2.2,2.4C503.3,94.7,504.1,94,505.1,93.4z"/>
<path class="st9" d="M492.3,137c0,0.7-0.5,1.1-1.1,1.6C491,137.5,491.8,137.4,492.3,137z"/>
<path class="st9" d="M492.1,106.4c0,0.3,0,0.3-0.1,0.4c-0.2,0.3-0.4,0.7-0.8,0.8c0,0-0.2-0.1-0.2-0.2c-0.1-0.5,0.4-0.6,0.7-0.8
	C491.8,106.5,491.9,106.5,492.1,106.4z"/>
<path class="st11" d="M384.8,95.7c2.2,12.2,4.3,24.4,6.5,36.6c-1.7,0.3-3.3,0.1-4.9,0.2c-2.3,0-4.5,0-6.8,0c-1.8,0-1.8,0-1.5-1.7
	c0.7-3.8,1.3-7.6,2-11.3c1.4-7.9,2.8-15.8,4.2-23.7C384.5,95.7,384.7,95.7,384.8,95.7z"/>
<path class="st4" d="M394.1,61.4c0.6,0.8-0.2,1.2-0.6,1.6c-2.3,2.4-4.7,4.8-7,7.2c-4.7,4.8-9.5,9.6-14.2,14.4
	c-0.4,0.4-0.8,1-1.5,1.2c0.1-1.2,0.3-2.1,1.2-3c7.2-7,14.3-14,21.5-21C393.6,61.6,393.7,61.3,394.1,61.4z"/>
<path class="st4" d="M364.1,123.1c0.1-1.1,0.3-1.9,1-2.6c5.4-5.4,10.7-10.8,16.1-16.2c0.1-0.1,0.2-0.1,0.5-0.3c0.1,1.1,0,2-0.8,2.8
	c-5.4,5.3-10.8,10.7-16.2,16.1C364.5,123,364.4,123,364.1,123.1z"/>
<path class="st6" d="M360.8,142.3c-0.1-1.7,0.5-2.7,1.4-3.5c5.1-4.9,10.1-9.9,15.1-14.9c0.3-0.3,0.5-0.7,1-0.7
	c0.4,1.2-0.4,1.9-1.1,2.6c-4.3,4.4-8.7,8.8-13.1,13.2C363.1,139.9,362.1,141,360.8,142.3z"/>
<path class="st6" d="M396.1,152.8c-0.4-0.7-0.5-1.3,0.2-2c3.8-3.7,7.6-7.5,11.5-11.3c0.8,1.2,0.1,1.7-0.5,2.3
	c-3.3,3.3-6.5,6.7-9.8,10C397.1,152.2,396.8,152.7,396.1,152.8z"/>
<path class="st4" d="M391.6,127c-0.5-1.2-0.4-1.8,0.2-2.4c3.7-3.6,7.4-7.1,11.1-10.7c0.1-0.1,0.4-0.2,0.5-0.2
	c0.3,0.4,0.4,0.8,0.1,1.1C399.5,118.8,395.7,122.8,391.6,127z"/>
<path class="st5" d="M387,100.7c-0.6-1-0.4-1.7,0.2-2.4c3.8-3.7,7.5-7.4,11.3-11.1c1,1,0.3,1.6-0.4,2.3c-2.7,2.8-5.5,5.6-8.2,8.3
	C389,98.7,388,99.7,387,100.7z"/>
<path class="st5" d="M371.4,145.6c3.5-4,7.2-7.7,10.9-11.5c0.6-0.7,1.3-0.9,2.5-0.6c-4.3,4.4-8.6,8.5-13,12.5
	C371.6,145.9,371.5,145.8,371.4,145.6z"/>
<path class="st7" d="M382.7,88.8c-5,5.2-10,10.3-15.2,15.6c-0.3-1.1,0.2-1.7,0.7-2.3c4.6-4.5,9.2-9,13.8-13.4
	C382.3,88.8,382.5,88.8,382.7,88.8z"/>
<path class="st4" d="M396.2,136.2c2.7-3.5,5.9-6.6,9.3-9.6c0.9,0.8,0.3,1.4-0.2,1.9c-1.5,1.6-3,3.1-4.6,4.7c-1.3,1.2-2.6,2.4-4,3.5
	C396.5,136.5,396.3,136.3,396.2,136.2z"/>
<path class="st7" d="M395.4,107c-2,2.2-4,4.3-6.2,6.4c-0.6-0.8-0.2-1.1,0.2-1.4c2-1.9,4-3.8,5.9-5.6
	C395.4,106.6,395.4,106.8,395.4,107z"/>
<path class="st9" d="M378.1,62.8c-1.2,1.3-2.4,2.8-3.9,3.8c0.3-2,2.2-2.8,3.4-4.2C377.9,62.4,378,62.5,378.1,62.8z"/>
<path class="st9" d="M382.7,88.8c-0.2,0-0.4,0-0.6-0.1c1.7-1.9,3.6-3.6,5.5-5.3c0,0,0.2,0,0.2,0l0.2-0.1
	C386.4,85.4,384.6,87.1,382.7,88.8z"/>
<path class="st8" d="M387.9,83.4l-0.2,0.1c0,0-0.2,0-0.2,0c1.3-1.8,3.2-3.1,4.8-4.6C390.9,80.4,389.8,82.2,387.9,83.4z"/>
<path class="st7" d="M387.6,145.6c-0.4,0.5-0.8,0.9-1.1,1.4c-0.5,0.6-1,0.8-1.9,0.5c0.6-1.1,1.6-1.6,2.5-2.3
	C387.4,145.3,387.5,145.4,387.6,145.6z"/>
<path class="st8" d="M378.1,62.8c-0.1-0.2-0.3-0.4-0.5-0.4c0.7-0.9,1.6-1.6,2.7-2.2C379.7,61.1,379.1,62.1,378.1,62.8z"/>
<path class="st9" d="M371.4,145.6c0.1,0.1,0.3,0.3,0.4,0.4c-1,1-1.9,2.1-3.2,2.8c0.1-0.1,0.1-0.2,0-0.2
	C369.4,147.5,370.3,146.5,371.4,145.6z"/>
<path class="st8" d="M397.8,103.9c0.9-1.1,1.9-2,3.1-2.8c-0.8,1.3-1.8,2.4-3,3.4C397.9,104.3,397.9,104.1,397.8,103.9z"/>
<path class="st9" d="M397.8,103.9c0,0.2,0.1,0.4,0.1,0.6c-0.8,0.9-1.5,1.9-2.5,2.5c0-0.2,0-0.4-0.1-0.6
	C396.2,105.5,397,104.7,397.8,103.9z"/>
<path class="st9" d="M396.2,136.2c0.2,0.2,0.3,0.3,0.5,0.5c-0.3,0.4-0.6,0.7-1.2,0.8C395.4,136.8,395.8,136.5,396.2,136.2z"/>
<path class="st8" d="M368.6,148.7c0,0.1,0,0.2,0,0.2c-0.1,0.5-0.5,0.7-1,0.9C367.8,149.3,368.1,148.9,368.6,148.7z"/>
<path class="st8" d="M387.6,145.6c-0.1-0.2-0.3-0.4-0.5-0.4c0.3-0.4,0.6-0.7,1.2-0.7C388.4,145.1,388,145.4,387.6,145.6z"/>
<path class="st8" d="M814.2,84.4c0.4-2.7,1.5-4.5,3.4-6c2-1.6,4.3-2.1,6.7-2.4c2.3-0.3,4.6-0.3,7,0C825.8,79,820.1,81.7,814.2,84.4z
	"/>
<g>
	<path class="st10" d="M729.9,103.9c0-2.5-0.2-5.1-0.7-7.6c-0.5-2.3-1.5-4.4-3.2-6.1c-5.4-5.4-6.4-11.9-5.2-19.1
		c1.4-8.6,6-15.5,11.9-21.7c2.9-3.1,6.3-5.8,10.2-7.6c0.5-0.2,1-0.5,1.5-0.5c0.3,0.3,0.2,0.6,0.1,1c-0.9,6.9-0.1,13.8,0.6,20.7
		c0.6,5.4,0.7,10.8-0.9,16.1c-1.7,5.5-5,9.9-9.6,13.3c-2,1.4-2.8,3.2-2.7,5.4c0.5,8.6,1,17.1,1.6,25.7c0,0.3,0.1,0.7,0.2,1
		c0.7,0,0.9-0.6,1.2-1c3.2-4.1,6.4-8.2,9.7-12.3c1-1.3,1.4-2.6,1.2-4.2c-0.4-3.5-1-7.1-0.9-10.7c0.1-4.7,0.8-9.3,2.5-13.7
		c1.7-4.6,3-9.3,4.5-13.9c0.1-0.4,0.3-0.8,0.5-1.4c5.4,3.1,7.9,8.5,11.3,13.1c0.7-0.3,0.6-0.9,0.8-1.4c1.3-3.8,2.7-7.6,4-11.5
		c0.7-1.9,0.4-2.7-1.4-3.7c-1-0.6-2.1-1-3.1-1.7c-3.4-2.1-5.8-5-6.5-9.1c-0.5-2.8-0.1-5.5,0.8-8.1c2.9-8.3,5.7-16.6,8.7-24.9
		c2.1-5.9,5.6-11,9.5-15.8c1.2-1.5,2.5-2.9,3.7-4.4c0.9,0.4,1.3,1,1.1,1.8c-1.5,7.4,0.1,14.5,2,21.5c2.2,8.2,3.2,16.5,3,25.1
		c-0.2,5.8-2.6,10.1-7.4,13.2c-1.2,0.8-2.5,1.5-3.8,2c-1.9,0.8-3.2,2.1-4,3.9c-2,4.6-3.7,9.3-5.3,14.1c-0.6,1.9-0.3,3.8,0,5.7
		c0.5,3.3,0.7,6.7,0.4,10c-0.6,6.4-2.4,12.4-5.8,17.8c-3.1,5-5.3,10.4-7.1,15.9c-0.3,1-0.7,2.1-1.1,3.1c-0.2,0.6-0.4,1.1,0.3,1.4
		c0.6,0.4,0.9-0.2,1.2-0.4c6.7-5.5,13.5-10.8,20-16.6c6-5.4,11.8-10.9,17.6-16.4c1.7-1.6,2.6-3.4,2.6-5.8c0-8.1,3.8-14,10.9-17.8
		c4.3-2.3,9-3.4,13.7-4.1c7.7-1.1,15.5-0.8,23.3-0.6c0,0,0.1,0.1,0.2,0.3c-0.1,1-0.6,1.8-1.3,2.5c-6.1,6.1-12.2,12.3-18.4,18.3
		c-3.5,3.4-7.6,5.8-12.4,7.1c-3.5,1-7.1,1.2-10.6,0.5c-3-0.6-5.2,0.3-7.3,2.2c-3.6,3.2-7.2,6.4-10.8,9.5
		c-5.9,5.2-11.9,10.4-17.8,15.7c-5.3,4.8-11.1,9-17.3,12.6c-1.4,0.8-2.8,1.8-4.7,2.9c3.1,0.2,5.7,0.2,8.3,0c5.4-0.3,10.6-1.3,15.7-3
		c2.1-0.7,3.7-2,4.3-4.1c3-9,9.6-14.6,17.9-18.6c6.5-3.1,13.3-5.4,20-8.1c2.9-1.2,5.8-2.2,8.6-3.4c1.1-0.4,2.2-0.7,3-0.8
		c0.6,0.1,0.6,0.2,0.6,0.4c-1.8,7.2-4.5,14.1-8.8,20.3c-6.4,9.2-15,15.6-25.7,18.9c-5.4,1.7-10.8,1.4-16-1.1
		c-1.3-0.6-2.7-0.8-4.2-0.7c-6.4,0.5-12.8,0.9-19.1,1.4c-5.4,0.5-10.8,1.1-16.1,2.4c-4.2,1.1-7.7,3.2-10.6,6.4
		c-7.5,8.4-15.8,16.1-23.9,23.9c-5,4.9-10,9.8-14.3,15.4c-3.7,4.8-6.6,9.9-8.7,15.6c-0.7,1.9-0.8,2-2.6,2.1
		c-0.2-0.6,0.1-1.2,0.2-1.8c1.8-6.4,4.9-12.1,9.3-17c7-8,14.7-15.4,22.3-22.9c5.9-5.8,12-11.5,17.2-18.1c4.1-5.2,7.7-10.7,9.8-17
		c1.2-3.6,1.9-7.3,2.2-11.1c0.3-4.7,0.3-9.5-0.1-14.2c-0.1-1.1-0.4-2.2-1.2-3c-4.1-3.5-8.3-6.8-13.7-8.1c-4.1-1-8-0.6-11.9,1
		c-1.5,0.6-2.9,1.2-4.2,2.1c-7.8,5.1-16.4,8.2-25.4,10.4c-3.3,0.8-6.7,1.4-10.1,2.2c-3,0.7-6,0-9-0.2c-0.8,0-1.1-0.6-1.3-1.2
		c-0.3-0.7,0.4-0.9,0.9-1.2c2.4-1.4,4.1-3.4,5.6-5.6c2-2.8,3.9-5.6,5.8-8.5c1.8-2.9,4-5.6,6.6-7.8c6.5-5.3,13.8-6.4,21.7-4.2
		c3.4,0.9,6.6,2.4,9.6,4.1c8.3,4.8,16.8,9.2,25.4,13.6C730,104.6,730.1,104.3,729.9,103.9z M746.8,112.3
		c-4.4,5.4-8.6,10.6-12.8,15.8c-0.8,1-1.4,2.2-1.9,3.4c-2,5.5-4,10.9-6.1,16.4c-0.1,0.4-0.4,0.7-0.1,1.1c0.1,0,0.3,0.1,0.4,0
		c6.5-3,12.9-6.1,19.3-9.1c0.9-0.4,1.6-1.1,2-2c2.1-5.1,4.1-10.1,6.2-15.2c0.5-1.2,0.3-2.3-0.6-3.3
		C751.2,117.1,749.1,114.8,746.8,112.3z M759.2,51c0,4.7,3.9,9.6,8.4,10.8c1.7,0.4,2.4,0.1,2.9-1.6c0.1-0.4,0.2-0.8,0.3-1.2
		c0.3-2.2,0.6-4.5,0.8-6.7c0.9-8.7,1.7-17.4,2.5-26.1c0.5-4.8,1.1-9.5,2.8-14.1c0.6-1.5,1-3.1,1.5-4.7c0.1-0.4,0.6-0.9,0-1.2
		c-0.6-0.2-0.8,0.4-1.1,0.7c-0.8,1-1.6,2-2.4,3.1c-4.1,5.6-6.5,12-8.5,18.6c-2,6.5-3.7,13.1-6.6,19.3
		C759.3,48.8,759.3,49.9,759.2,51z M755.4,118.2c0.6-2.9,1.2-5.4,1.5-8c0.4-2.6,0.8-5.3,0.8-8c0-2.6,0.5-5.2,0.2-7.8
		c-0.3-2.6-0.2-5.3-0.6-8c-0.5-2.6-0.8-5.1-1.3-7.7c-0.5-2.5-1-5.1-2.1-7.6c-0.6,0.6-0.6,1.3-0.8,1.9c-1.1,3.7-2.4,7.3-3.8,10.9
		c-1.4,3.7-2.1,7.5-2.3,11.4c-0.1,2.9,0.1,5.8,0.6,8.6c0.6,3.5,1.4,7,3.6,10C752.2,115.5,753.5,117,755.4,118.2z M770.6,143.8
		c0.2,0.6,0.6,0.7,0.9,0.8c0.6,0.2,1.1,0.5,1.7,0.7c4.9,1.5,9.7,0.9,14.3-1c13.2-5.3,22.3-14.6,27.3-28c0.4-1,0.9-2,0.6-3.1
		c-0.8,0.1-1.1,0.7-1.5,1.1c-3.4,3.3-6.8,6.6-10.2,9.9c-6.9,6.6-14.6,11.8-23.4,15.4C777,141,773.8,142.4,770.6,143.8z M833.4,78.7
		c-13.6,4.1-25.2,11.5-35.9,21c3.3,1.5,6.5,1.5,9.7,0.8c6.1-1.2,11.1-4.4,15.3-8.9C826.5,87.6,829.9,83.1,833.4,78.7z M731.8,90.7
		c10.7-5.2,15.1-21.2,9.6-32.7c-0.8,0.6-1.6,1.3-2.5,1.9c-1.7,1.1-2.6,2.7-3.2,4.6c-1,3.3-2,6.5-2.7,9.9
		C732,79.7,731.3,85.1,731.8,90.7z M796.6,118.8c-5.2,1.8-9.9,3.7-14.1,6.6c-5.3,3.6-8.7,8.4-10.6,14.5c-0.2,0.5-0.4,1,0,1.6
		c0.2-0.1,0.4-0.1,0.6-0.2c5.6-2.9,11.2-5.7,16.8-8.6c1.4-0.7,2.6-1.8,3.5-3.1C795,126.4,795.6,122.8,796.6,118.8z M784.2,38.6
		c0-1.3-0.1-2.2-0.3-3c-1.1-6.4-3-12.5-4.5-18.8c-0.1-0.4-0.2-0.8-0.3-1.2c-0.2-0.5-0.5-0.6-1-0.6c-0.4,0-0.6,0.3-0.7,0.6
		c-0.1,0.3-0.1,0.7-0.2,1c-0.4,4.2-0.8,8.4-1.2,12.7c-0.6,6.7-1.2,13.5-1.9,20.2c0,0.5-0.2,1,0.4,1.2c0.5,0.2,0.9,0.1,1.3-0.3
		c2-1.9,4.2-3.5,6-5.7C783.3,42.9,784.3,40.8,784.2,38.6z M672.6,94.8c2,1,4,1.5,6.1,2c3.7,0.9,7.3,0.9,11-0.2
		c3.2-1,6.4-1.3,9.7-1.6c1.8-0.2,3.6-0.4,5.7-0.6c-2.1-2.2-4.3-3.5-6.7-4.5c-6.4-2.7-12.8-3.3-19.4-0.6
		C676.3,90.3,674,92,672.6,94.8z M667,111.9c13.4-2.4,25.8-6.7,37.1-14.4c-0.6-0.5-1-0.5-1.4-0.5c-3.7-0.1-7.3,0.2-10.8,1
		c-7.2,1.6-13.4,5.1-19.3,9.5C670.8,109,668.9,110.5,667,111.9z M740,47c-0.1-0.1-0.3-0.1-0.4-0.2c-4.3,3.1-8.3,6.5-11.3,10.9
		c-1.4,2.1-2.5,4.4-3.3,6.8c-0.4,1.5-0.4,2.8,0.5,4.1c1.2,1.8,2.4,3.7,3.6,5.5c0.2,0.4,0.4,0.9,1.1,0.9
		C733.4,65.7,736.7,56.4,740,47z M815.4,77c-2.7,0.3-5,1.1-7.3,2.1c-6.5,2.8-10.8,7.4-11.8,14.6c-0.1,0.9-0.5,2.2,0.2,2.7
		c0.8,0.6,1.7-0.4,2.5-0.9c6.4-4.1,11.5-9.4,15.4-16C814.7,78.8,815.2,78.1,815.4,77z M759,112.4c1.1-1.5,1.8-2.7,2.3-4
		c2.8-6.6,3.8-13.5,2.6-20.7c-0.5-3.3-1.6-6.4-3.8-9c-0.3-0.3-0.4-0.9-1.1-0.7C759,89.4,759,100.6,759,112.4z M680.1,99.7
		c-2.4-0.9-4.8-1.7-7.1-2.5c-2-0.6-3-0.3-4.2,1.5c-3,4.3-6,8.5-9,12.8c-0.3,0.5-1,0.9-0.3,1.6c0.7,0.8,1.2-0.1,1.7-0.3
		c0.1,0,0.2-0.2,0.3-0.2c5.7-3.8,11.4-7.6,17.1-11.5C679.2,100.8,679.8,100.6,680.1,99.7z M728.5,89.8c2.9-6.2,0.7-14.4-5-19.4
		C721,75.8,723.1,84.9,728.5,89.8z M784.1,46.1c-0.7,0-0.9,0.4-1.2,0.7c-2,2-4,3.9-6.4,5.4c-2.2,1.3-3.2,3.5-3.5,6
		c-0.1,0.5-0.1,1.1-0.1,1.6c-0.2,1.5,0,1.7,1.5,1.3c3.4-1,6.2-2.8,8-6C783.8,52.3,784.4,49.3,784.1,46.1z M797.4,127.6
		c4.7-4.5,9.5-8.6,14.1-13.2c-3.4,0.1-7.5,1.3-9.8,2.7C798.3,119.2,796.4,123.5,797.4,127.6z M814.2,84.4c5.9-2.8,11.6-5.4,17.1-8.3
		c-2.4-0.3-4.7-0.3-7,0c-2.4,0.3-4.7,0.8-6.7,2.4C815.7,79.9,814.6,81.8,814.2,84.4z M741.1,50.9c-0.8,1-1,2.1-1.5,3.1
		c-0.4,0.9-1,1.8-1.1,3C742,56.2,742.7,54.6,741.1,50.9z"/>
	<path class="st12" d="M746.8,112.3c2.3,2.5,4.4,4.8,6.5,7.2c0.9,1,1,2.1,0.6,3.3c-2,5.1-4.1,10.2-6.2,15.2c-0.4,0.9-1.1,1.6-2,2
		c-6.4,3-12.9,6.1-19.3,9.1c-0.1,0-0.2,0-0.4,0c-0.3-0.4,0-0.8,0.1-1.1c2-5.5,4-10.9,6.1-16.4c0.5-1.2,1-2.4,1.9-3.4
		C738.2,122.9,742.4,117.7,746.8,112.3z"/>
	<path class="st8" d="M759.2,51c0.1-1.1,0.1-2.2,0.6-3.2c2.9-6.2,4.6-12.8,6.6-19.3c2-6.6,4.4-13,8.5-18.6c0.8-1,1.6-2.1,2.4-3.1
		c0.3-0.3,0.5-1,1.1-0.7c0.7,0.3,0.2,0.8,0,1.2c-0.5,1.6-0.9,3.2-1.5,4.7c-1.6,4.6-2.3,9.3-2.8,14.1c-0.8,8.7-1.7,17.4-2.5,26.1
		c-0.2,2.2-0.5,4.5-0.8,6.7c-0.1,0.4-0.2,0.8-0.3,1.2c-0.5,1.7-1.2,2.1-2.9,1.6C763.1,60.6,759.2,55.6,759.2,51z"/>
	<path class="st8" d="M755.4,118.2c-1.9-1.2-3.2-2.7-4.4-4.3c-2.1-3-3-6.5-3.6-10c-0.5-2.8-0.7-5.7-0.6-8.6
		c0.1-3.9,0.8-7.8,2.3-11.4c1.4-3.6,2.6-7.2,3.8-10.9c0.2-0.6,0.2-1.2,0.8-1.9c1.1,2.5,1.6,5.1,2.1,7.6c0.5,2.5,0.9,5.1,1.3,7.7
		c0.5,2.6,0.3,5.3,0.6,8c0.3,2.6-0.1,5.2-0.2,7.8c-0.1,2.7-0.5,5.3-0.8,8C756.6,112.8,756,115.3,755.4,118.2z"/>
	<path class="st8" d="M770.6,143.8c3.2-1.4,6.4-2.8,9.7-4.2c8.8-3.6,16.5-8.9,23.4-15.4c3.4-3.3,6.8-6.6,10.2-9.9
		c0.4-0.4,0.7-1,1.5-1.1c0.3,1.2-0.2,2.2-0.6,3.1c-5,13.3-14.2,22.7-27.3,28c-4.6,1.8-9.4,2.5-14.3,1c-0.6-0.2-1.2-0.4-1.7-0.7
		C771.2,144.5,770.8,144.4,770.6,143.8z"/>
	<path class="st8" d="M833.4,78.7c-3.6,4.4-7,8.9-10.9,13c-4.2,4.4-9.2,7.6-15.3,8.9c-3.2,0.7-6.4,0.7-9.7-0.8
		C808.2,90.2,819.9,82.8,833.4,78.7z"/>
	<path class="st8" d="M731.8,90.7c-0.4-5.6,0.2-11,1.3-16.3c0.7-3.4,1.7-6.6,2.7-9.9c0.6-1.9,1.5-3.5,3.2-4.6
		c0.8-0.6,1.6-1.2,2.5-1.9C746.9,69.5,742.5,85.5,731.8,90.7z"/>
	<path class="st8" d="M796.6,118.8c-1,4-1.6,7.6-3.8,10.7c-0.9,1.3-2.1,2.4-3.5,3.1c-5.6,2.9-11.2,5.8-16.8,8.6
		c-0.2,0.1-0.4,0.1-0.6,0.2c-0.4-0.6-0.1-1.1,0-1.6c1.8-6.1,5.3-10.9,10.6-14.5C786.7,122.5,791.4,120.6,796.6,118.8z"/>
	<path class="st8" d="M784.2,38.6c0.2,2.2-0.9,4.3-2.5,6.2c-1.8,2.1-4,3.8-6,5.7c-0.4,0.4-0.8,0.5-1.3,0.3c-0.6-0.3-0.4-0.7-0.4-1.2
		c0.6-6.7,1.2-13.5,1.9-20.2c0.4-4.2,0.8-8.4,1.2-12.7c0-0.3,0.1-0.7,0.2-1c0.1-0.4,0.3-0.6,0.7-0.6c0.4,0,0.8,0.1,1,0.6
		c0.1,0.4,0.2,0.8,0.3,1.2c1.6,6.2,3.4,12.4,4.5,18.8C784,36.4,784.1,37.3,784.2,38.6z"/>
	<path class="st8" d="M672.6,94.8c1.4-2.9,3.7-4.5,6.4-5.6c6.5-2.7,13-2.1,19.4,0.6c2.4,1,4.6,2.3,6.7,4.5c-2.1,0.2-3.9,0.4-5.7,0.6
		c-3.3,0.3-6.5,0.7-9.7,1.6c-3.6,1.1-7.3,1.1-11,0.2C676.7,96.4,674.6,95.9,672.6,94.8z"/>
	<path class="st8" d="M667,111.9c1.9-1.5,3.7-3,5.7-4.4c5.8-4.3,12.1-7.9,19.3-9.5c3.6-0.8,7.2-1.2,10.8-1c0.4,0,0.8,0,1.4,0.5
		C692.9,105.3,680.4,109.5,667,111.9z"/>
	<path class="st8" d="M740,47c-3.3,9.4-6.5,18.7-9.8,28c-0.8,0.1-0.9-0.5-1.1-0.9c-1.2-1.8-2.4-3.7-3.6-5.5
		c-0.9-1.3-0.9-2.6-0.5-4.1c0.7-2.5,1.8-4.7,3.3-6.8c3-4.4,7.1-7.8,11.3-10.9C739.7,46.9,739.8,46.9,740,47z"/>
	<path class="st8" d="M815.4,77c-0.1,1-0.7,1.7-1.1,2.5c-3.8,6.6-8.9,11.9-15.4,16c-0.8,0.5-1.7,1.5-2.5,0.9
		c-0.7-0.5-0.3-1.8-0.2-2.7c1-7.2,5.3-11.8,11.8-14.6C810.3,78.2,812.7,77.3,815.4,77z"/>
	<path class="st8" d="M759,112.4c0-11.7,0-23,0-34.3c0.7-0.2,0.8,0.3,1.1,0.7c2.1,2.6,3.2,5.7,3.8,9c1.2,7.1,0.3,14-2.6,20.7
		C760.7,109.6,760.1,110.8,759,112.4z"/>
	<path class="st8" d="M680.1,99.7c-0.3,0.9-1,1.1-1.4,1.4c-5.7,3.8-11.4,7.6-17.1,11.5c-0.1,0.1-0.2,0.2-0.3,0.2
		c-0.6,0.2-1,1.2-1.7,0.3c-0.6-0.7,0-1.1,0.3-1.6c3-4.3,5.9-8.6,9-12.8c1.2-1.7,2.2-2.1,4.2-1.5C675.4,98,677.7,98.8,680.1,99.7z"/>
	<path class="st8" d="M728.5,89.8c-5.4-4.8-7.5-13.9-5-19.4C729.2,75.4,731.5,83.6,728.5,89.8z"/>
	<path class="st8" d="M784.1,46.1c0.2,3.2-0.4,6.2-1.9,9c-1.7,3.2-4.5,5.1-8,6c-1.4,0.4-1.6,0.2-1.5-1.3c0.1-0.5,0.1-1.1,0.1-1.6
		c0.3-2.5,1.3-4.7,3.5-6c2.5-1.5,4.5-3.4,6.4-5.4C783.2,46.5,783.4,46.1,784.1,46.1z"/>
	<path class="st8" d="M797.4,127.6c-1-4.1,0.9-8.5,4.3-10.5c2.3-1.4,6.5-2.5,9.8-2.7C806.9,119.1,802.2,123.2,797.4,127.6z"/>
	<path class="st8" d="M741.1,50.9c1.6,3.7,0.9,5.3-2.5,6.1c0.1-1.1,0.6-2,1.1-3C740,53,740.3,51.9,741.1,50.9z"/>
	<path class="st13" d="M729.9,103.9c0.2,0.5,0.2,0.7-0.4,0.4C729.6,104.1,729.7,104,729.9,103.9z"/>
</g>
<path class="st4" d="M1,104.1c-0.2-0.4-0.2-0.7,0-0.9c4.5-4.9,9.1-9.6,14-14.4c0.3,1.2,0.2,1.9-0.5,2.6c-4.4,4.2-8.7,8.3-13,12.5
	C1.4,104,1.2,104,1,104.1z"/>
<path class="st4" d="M39.3,51.1c-3.8,4-7.8,7.7-11.7,11.5c-0.6,0.6-1.1,0.7-1.9,0.6c-0.1-0.7,0.4-0.9,0.7-1.2
	c3.5-3.6,7-7.2,10.5-10.7C37.6,50.7,38.3,49.9,39.3,51.1z"/>
<path class="st5" d="M1.1,119.7c-0.4-0.8-0.1-1.2,0.2-1.5c4.4-4.5,8.8-9,13.2-13.5c0.1-0.1,0.3-0.1,0.5-0.1c0.2,0.8,0.2,1.4-0.4,2
	C10.1,110.9,5.7,115.2,1.1,119.7z"/>
<path class="st6" d="M1,135.2c-0.2-0.9-0.1-1.5,0.5-2.1c4.4-4.4,8.8-8.7,13.3-13.2c0.7,1,0.1,1.6-0.4,2.1c-1.3,1.3-2.6,2.6-3.9,3.9
	c-2.8,2.8-5.5,5.5-8.3,8.3C1.9,134.6,1.6,135,1,135.2z"/>
<path class="st4" d="M34.6,162.1c3.3-4.2,7-7.8,11.2-11.1c0.2,0,0.5,0,0.7,0c-3.4,4.3-7.1,8.2-11.4,11.6
	C34.9,162.4,34.8,162.2,34.6,162.1z"/>
<path class="st6" d="M10.5,156.8c-0.5-0.2-0.7-0.4-0.9-0.7c-0.2-0.3,0.1-0.5,0.3-0.7c1.1-1.1,2.1-2.1,3.2-3.2
	c1.8-1.8,3.7-3.7,5.5-5.5c0.4-0.3,0.7-0.9,1.3-0.4c0.7,0.6,0.1,0.9-0.2,1.3c-2.8,2.9-5.7,5.7-8.5,8.6
	C11,156.4,10.7,156.6,10.5,156.8z"/>
<path class="st7" d="M3.2,147.3c3.8-4.1,7.7-8,11.7-12.1c0.5,0.9,0.3,1.4-0.2,1.9c-3.6,3.5-7.2,7-10.8,10.4
	c-0.1,0.1-0.2,0.1-0.4,0.1C3.4,147.5,3.3,147.4,3.2,147.3z"/>
<path class="st4" d="M43.7,75.5c3.6-3.5,7.1-6.8,10.5-10.2c0.5,0.8,0.1,1.1-0.2,1.4c-2.7,2.8-5.4,5.5-8,8.3
	C45.4,75.7,44.8,76,43.7,75.5z"/>
<path class="st5" d="M9.5,64.9c-2.7,2.8-5.3,5.5-8,8.4c-0.6-1.1,0-1.6,0.6-2.1c2.3-2.2,4.7-4.5,7-6.7C9.2,64.6,9.4,64.7,9.5,64.9z"
	/>
<path class="st9" d="M9.5,64.9c-0.2-0.1-0.3-0.3-0.5-0.4c1.4-1.7,3.2-3.1,4.9-4.5C12.7,61.8,11.2,63.4,9.5,64.9z"/>
<path class="st7" d="M27.6,153.9c1.6-1.7,2.9-3.9,5.2-5c0.1,0.1,0.2,0.2,0.3,0.3c-0.8,0.8-1.6,1.6-2.5,2.4c-0.8,0.8-1.7,1.5-2.6,2.3
	C27.9,154,27.7,154,27.6,153.9z"/>
<path class="st4" d="M42.1,140.3c0.3-2.7,0.9-3.4,3.4-3.3C44.5,138.3,43.5,139.6,42.1,140.3L42.1,140.3z"/>
<path class="st9" d="M53.7,143.5c0.6-1.3,1.6-2.4,2.7-3.6C56.5,141.8,56.5,141.8,53.7,143.5z"/>
<path class="st8" d="M27.6,153.9c0.1,0,0.3,0,0.4,0c-0.4,0.7-1.1,1.1-1.8,1.5C26.5,154.8,26.9,154.3,27.6,153.9z"/>
<path class="st8" d="M38.1,66.8c0.2-1,0.9-1.1,1.3-1.5C39.3,65.9,38.9,66.3,38.1,66.8z"/>
<path class="st9" d="M34.6,162.1c0.1,0.2,0.3,0.3,0.4,0.5c-0.3,0.4-0.6,0.8-1.3,0.7C33.8,162.7,34.2,162.4,34.6,162.1z"/>
<path class="st8" d="M46.5,151c-0.2,0-0.5,0-0.7,0c0.2-0.4,0.4-0.7,0.9-0.5C46.8,150.6,46.7,150.9,46.5,151z"/>
<polygon class="st9" points="14.8,59 15,58.9 14.8,58.9 "/>
<path class="st4" d="M42.1,140.3c0,0,0,0.1,0,0.1C42.1,140.4,42.1,140.4,42.1,140.3C42.1,140.3,42.1,140.3,42.1,140.3z"/>
<path class="st5" d="M458.8,49c-7.3,7.1-14.5,14.2-21.6,21.2c-0.4-0.9,0.1-1.6,0.9-2.4c6.1-6,12.2-12.1,18.3-18.2
	C457,48.9,457.7,48.6,458.8,49z"/>
<path class="st4" d="M437.2,132.1c-0.3-1.1-0.1-1.8,0.6-2.5c4.2-4.1,8.4-8.3,12.6-12.5c0.2-0.2,0.5-0.5,0.9-0.5
	c0.2,0.8,0.2,1.4-0.4,2C446.4,123.1,441.9,127.5,437.2,132.1z"/>
<path class="st6" d="M451.3,147.2c0.2,1.1,0.1,1.8-0.6,2.4c-4.3,4.2-8.6,8.5-12.8,12.8c-0.1,0.1-0.3,0.2-0.6,0.3
	c-0.4-1-0.2-1.7,0.5-2.4c4.3-4.3,8.6-8.5,12.8-12.8C450.8,147.5,451,147.4,451.3,147.2z"/>
<path class="st4" d="M451.3,85.8c0.3,0.8,0.1,1.5-0.5,2.2c-4.3,4.3-8.7,8.5-13,12.8c-0.1,0.1-0.4,0.2-0.5,0.2
	c-0.3-0.8-0.1-1.3,0.5-1.9c4.4-4.4,8.8-8.8,13.2-13.2C450.9,85.8,451.1,85.8,451.3,85.8z"/>
<path class="st5" d="M472,49.5c0.3,0.9,0.3,1.6-0.4,2.2c-3.7,3.6-7.3,7.2-11,10.8c-0.4,0.4-0.8,0.8-1.7,0.4
	C463.2,58.3,467.5,53.9,472,49.5z"/>
<path class="st5" d="M443.2,140.2c2.5-3,5.2-5.7,8-8.6c0.4,1.2,0.3,1.9-0.5,2.6c-2.4,2.2-4.6,4.5-7.1,6.5
	C443.4,140.7,443.2,140.5,443.2,140.2z"/>
<path class="st9" d="M445.4,108c-2.7,2.8-5.4,5.6-8.1,8.4c-0.3-0.5-0.4-0.9-0.1-1.2c2.6-2.5,5.2-5.1,7.9-7.6
	C445.2,107.8,445.3,107.9,445.4,108z"/>
<path class="st7" d="M428,62.9c1.1-1.5,2.5-2.6,4.1-3.5C430.9,60.8,430.5,63.1,428,62.9z"/>
<path class="st9" d="M446,76c1.7-1.8,3.3-3.7,5.3-5.4c0.1,0.4,0.2,0.6,0.2,0.6c-1.4,1.8-3.2,3.3-4.9,4.9
	C446.3,76.1,446.2,76.1,446,76z"/>
<path class="st8" d="M446,76c0.2,0,0.3,0,0.5,0.1c-1,1.3-2.3,2.4-3.7,3.4C443.8,78.2,444.7,77,446,76z"/>
<path class="st9" d="M443.2,140.2c0.1,0.2,0.2,0.4,0.5,0.5c-0.6,0.8-1.3,1.3-2.1,1.8c0-0.2,0-0.4,0-0.6
	C442,141.3,442.5,140.7,443.2,140.2z"/>
<path class="st10" d="M442.7,48.8c-0.4,0.8-0.7,1.2-1.5,1.5C441.4,49.5,441.8,49.1,442.7,48.8z"/>
<path class="st8" d="M441.6,142c0,0.2,0,0.4,0,0.6c-0.1,0.3-0.5,0.5-0.6,0.4C440.8,142.5,441.2,142.2,441.6,142z"/>
</svg>
